<svg width="200" height="200" viewBox="0 0 200 200" fill="none" xmlns="http://www.w3.org/2000/svg">
  <circle cx="100" cy="100" r="100" fill="#F3F4F6"/>
  <circle cx="100" cy="80" r="50" fill="#E5E7EB"/>
  <circle cx="85" cy="70" r="5" fill="#1F2937"/>
  <circle cx="115" cy="70" r="5" fill="#1F2937"/>
  <path d="M90 100C90 94.4772 94.4772 90 100 90C105.523 90 110 94.4772 110 100C110 105.523 105.523 110 100 110C94.4772 110 90 105.523 90 100Z" fill="#1F2937"/>
  <path d="M60 140C60 125.641 71.1634 114 85 114H115C128.837 114 140 125.641 140 140V150C140 160.493 131.493 169 121 169H79C68.5066 169 60 160.493 60 150V140Z" fill="#D1D5DB"/>
  <path d="M80 55C80 51.134 83.134 48 87 48H113C116.866 48 120 51.134 120 55V70C120 82.1503 116.866 85 100 85C83.134 85 80 82.1503 80 70V55Z" fill="#D1D5DB"/>
  <path d="M80 30C80 23.9249 84.9249 19 91 19H109C115.075 19 120 23.9249 120 30V40H80V30Z" fill="#9CA3AF"/>
  <path d="M85 35C85 37.2091 86.7909 39 89 39H111C113.209 39 115 37.2091 115 35C115 32.7909 113.209 31 111 31H89C86.7909 31 85 32.7909 85 35Z" fill="#1F2937"/>
</svg>
