<svg width="200" height="200" viewBox="0 0 200 200" fill="none" xmlns="http://www.w3.org/2000/svg">
  <circle cx="100" cy="100" r="100" fill="#DBEAFE"/>
  <circle cx="100" cy="80" r="50" fill="#BFDBFE"/>
  <circle cx="85" cy="70" r="5" fill="#1F2937"/>
  <circle cx="115" cy="70" r="5" fill="#1F2937"/>
  <path d="M90 100C90 94.4772 94.4772 90 100 90C105.523 90 110 94.4772 110 100C110 105.523 105.523 110 100 110C94.4772 110 90 105.523 90 100Z" fill="#1F2937"/>
  <path d="M60 140C60 125.641 71.1634 114 85 114H115C128.837 114 140 125.641 140 140V150C140 160.493 131.493 169 121 169H79C68.5066 169 60 160.493 60 150V140Z" fill="#93C5FD"/>
  <path d="M80 55C80 51.134 83.134 48 87 48H113C116.866 48 120 51.134 120 55V70C120 82.1503 116.866 85 100 85C83.134 85 80 82.1503 80 70V55Z" fill="#93C5FD"/>
  <rect x="70" y="40" width="10" height="15" rx="2" fill="#1F2937"/>
  <rect x="120" y="40" width="10" height="15" rx="2" fill="#1F2937"/>
</svg>
