<?xml version="1.0" encoding="UTF-8"?>
<!-- Generator: https://ezgif.com/avif-to-svg -->
<svg version="1.1" xmlns="http://www.w3.org/2000/svg" width="740" height="867">
<path d="M0 0 C244.2 0 488.4 0 740 0 C740 286.11 740 572.22 740 867 C495.8 867 251.6 867 0 867 C0 580.89 0 294.78 0 0 Z " fill="#FEFEFE" transform="translate(0,0)"/>
<path d="M0 0 C1.06 0 1.06 0 2.14 0 C31.3 0.05 60 3.03 82.44 23.44 C96.66 38.83 100.52 58.23 99.83 78.5 C99.36 84.63 97.62 90.39 95.62 96.19 C96.23 95.8 96.84 95.41 97.46 95.02 C110.93 86.64 124.6 82.6 140.5 82.75 C141.64 82.76 142.78 82.77 143.95 82.77 C152.48 82.94 159.71 83.84 167.62 87.19 C168.66 87.6 169.7 88.01 170.77 88.44 C186.55 95.43 192.97 108.33 200.02 123.11 C203.49 130.01 207.98 132.82 215.12 135.5 C215.95 135.73 216.77 135.95 217.62 136.19 C217.62 136.52 217.62 136.85 217.62 137.19 C205.21 138.13 197.32 136.74 186.62 130.19 C185.97 129.86 185.3 129.53 184.62 129.19 C185.03 129.58 185.43 129.97 185.84 130.38 C198.52 143.72 207.59 163.82 208.62 182.19 C208.69 183.31 208.75 184.44 208.82 185.6 C209.29 201.59 205.55 215.84 198.62 230.19 C198.29 230.19 197.97 230.19 197.62 230.19 C197.5 228.87 197.38 227.56 197.26 226.21 C197.09 224.47 196.92 222.74 196.75 221 C196.67 220.14 196.59 219.27 196.51 218.38 C196.08 214 195.6 210.2 193.62 206.19 C193.68 207.99 193.68 207.99 193.73 209.82 C193.98 222.55 192.92 234.67 190.62 247.19 C190.42 248.29 190.42 248.29 190.22 249.42 C186.97 266.59 180.54 283.18 171.62 298.19 C170.28 294.15 171.56 291.15 172.62 287.19 C173.45 283.39 173.67 279.86 173.65 275.99 C173.65 275.09 173.64 274.19 173.64 273.27 C173.63 272.58 173.63 271.89 173.62 271.19 C173.41 272.21 173.41 272.21 173.19 273.25 C169.52 290.39 165.34 307.31 160.62 324.19 C161.95 324.19 163.26 324.19 164.62 324.19 C164.62 323.53 164.62 322.87 164.62 322.19 C181.79 321.43 181.79 321.43 189.62 326.19 C190.51 326.62 191.4 327.05 192.31 327.5 C195.61 329.91 198.28 332.84 200.62 336.19 C200.62 336.85 200.62 337.51 200.62 338.19 C201.28 338.19 201.95 338.19 202.62 338.19 C208.85 353.36 207.46 366.94 201.42 381.91 C195.84 395.11 186.45 415.13 172.8 421.51 C171.72 421.84 171.72 421.84 170.62 422.19 C170.62 422.85 170.62 423.51 170.62 424.19 C169.13 424.99 167.63 425.78 166.12 426.56 C165.29 427 164.45 427.44 163.59 427.9 C157.17 430.69 151.05 431.58 144.12 431.56 C143.38 431.56 142.64 431.56 141.87 431.56 C135.19 431.42 130.5 430.07 125.62 425.19 C124.99 426.52 124.37 427.85 123.75 429.19 C123.4 429.93 123.05 430.67 122.7 431.44 C121.6 434.25 120.92 437.06 120.22 439.98 C119.12 444.05 117.52 447.91 115.94 451.81 C115.59 452.68 115.24 453.55 114.88 454.44 C111.84 461.89 108.39 469.07 104.62 476.19 C103.96 476.19 103.31 476.19 102.62 476.19 C102.34 476.95 102.05 477.71 101.75 478.5 C100.62 481.19 100.62 481.19 98.62 484.19 C97.96 484.19 97.31 484.19 96.62 484.19 C96.38 484.81 96.13 485.43 95.88 486.06 C94.42 488.54 93.25 489.14 90.62 490.19 C90.62 490.85 90.62 491.51 90.62 492.19 C89.96 492.19 89.31 492.19 88.62 492.19 C88.62 492.85 88.62 493.51 88.62 494.19 C87.96 494.19 87.31 494.19 86.62 494.19 C85.96 495.51 85.31 496.83 84.62 498.19 C83.96 498.19 83.31 498.19 82.62 498.19 C82.62 498.85 82.62 499.51 82.62 500.19 C81.96 500.19 81.31 500.19 80.62 500.19 C80.62 500.85 80.62 501.51 80.62 502.19 C79.96 502.19 79.31 502.19 78.62 502.19 C78.62 502.85 78.62 503.51 78.62 504.19 C76.95 505.7 76.95 505.7 74.75 507.31 C74.03 507.85 73.31 508.39 72.57 508.95 C70.62 510.19 70.62 510.19 68.62 510.19 C68.62 510.85 68.62 511.51 68.62 512.19 C66.51 513.7 66.51 513.7 63.75 515.31 C62.85 515.85 61.94 516.39 61.01 516.95 C58.63 518.19 58.63 518.19 56.62 518.19 C55.53 525.31 55.45 532.33 55.42 539.53 C55.42 540.81 55.41 542.1 55.4 543.42 C55.39 546.13 55.39 548.84 55.38 551.55 C55.38 554.29 55.37 557.04 55.34 559.79 C55.06 581.18 55.06 581.18 58.62 602.19 C58.89 603.2 59.15 604.21 59.43 605.26 C61.4 612.81 61.4 612.81 65.62 619.19 C70.28 619.49 70.28 619.49 74.62 618.19 C88.53 617.1 99.74 618.96 112.62 624.19 C112.62 624.85 112.62 625.51 112.62 626.19 C113.94 626.19 115.26 626.19 116.62 626.19 C116.62 626.85 116.62 627.51 116.62 628.19 C117.94 628.19 119.26 628.19 120.62 628.19 C120.62 628.85 120.62 629.51 120.62 630.19 C121.94 630.19 123.26 630.19 124.62 630.19 C124.62 630.85 124.62 631.51 124.62 632.19 C125.94 632.19 127.26 632.19 128.62 632.19 C128.62 632.85 128.62 633.51 128.62 634.19 C129.94 634.19 131.26 634.19 132.62 634.19 C132.62 634.85 132.62 635.51 132.62 636.19 C133.53 636.15 134.44 636.11 135.38 636.06 C138.5 636.18 140.01 636.58 142.62 638.19 C142.62 638.85 142.62 639.51 142.62 640.19 C143.53 640.33 144.44 640.48 145.38 640.62 C147.84 641.05 150.21 641.54 152.62 642.19 C152.62 642.85 152.62 643.51 152.62 644.19 C153.57 644.33 154.52 644.48 155.5 644.62 C158.62 645.19 158.62 645.19 160.62 646.19 C160.62 646.85 160.62 647.51 160.62 648.19 C161.45 648.29 162.27 648.39 163.12 648.5 C167.22 649.3 170.75 650.65 174.62 652.19 C174.62 652.85 174.62 653.51 174.62 654.19 C175.5 654.29 176.37 654.4 177.27 654.51 C180.76 655.21 183.24 656.33 186.38 658 C191.06 660.43 195.74 662.54 200.66 664.43 C202.62 665.19 202.62 665.19 204.62 666.19 C204.62 666.85 204.62 667.51 204.62 668.19 C205.95 668.19 207.26 668.19 208.62 668.19 C208.62 668.85 208.62 669.51 208.62 670.19 C209.41 670.11 210.19 670.02 211 669.94 C216 670.28 220.08 672.17 224.62 674.19 C224.62 674.85 224.62 675.51 224.62 676.19 C225.95 676.19 227.26 676.19 228.62 676.19 C228.62 676.85 228.62 677.51 228.62 678.19 C229.5 678.29 230.37 678.4 231.27 678.51 C234.76 679.21 237.24 680.33 240.38 682 C245.69 684.75 251.03 687.08 256.62 689.19 C257.42 689.49 258.21 689.79 259.02 690.1 C260.89 690.8 262.76 691.5 264.62 692.19 C264.62 692.85 264.62 693.51 264.62 694.19 C265.57 694.33 266.52 694.48 267.5 694.62 C270.63 695.19 270.63 695.19 272.62 696.19 C272.62 696.85 272.62 697.51 272.62 698.19 C273.95 698.19 275.26 698.19 276.62 698.19 C277.3 699.43 277.97 700.68 278.62 701.94 C279 702.63 279.37 703.33 279.75 704.05 C280.62 706.19 280.62 706.19 280.62 710.19 C281.28 710.19 281.95 710.19 282.62 710.19 C283.94 713.81 284.62 716.28 284.62 720.19 C285.28 720.19 285.95 720.19 286.62 720.19 C286.89 720.86 287.16 721.54 287.43 722.23 C287.78 723.13 288.14 724.02 288.5 724.94 C288.85 725.82 289.2 726.7 289.55 727.61 C290.55 730.14 290.55 730.14 291.76 732.27 C292.62 734.19 292.62 734.19 292.62 738.19 C293.28 738.19 293.95 738.19 294.62 738.19 C294.89 738.86 295.16 739.54 295.43 740.23 C295.78 741.13 296.14 742.02 296.5 742.94 C296.85 743.82 297.2 744.7 297.55 745.61 C298.55 748.14 298.55 748.14 299.76 750.27 C300.62 752.19 300.62 752.19 300.62 756.19 C301.28 756.19 301.95 756.19 302.62 756.19 C302.62 758.17 302.62 760.15 302.62 762.19 C303.28 762.19 303.95 762.19 304.62 762.19 C304.62 763.51 304.62 764.83 304.62 766.19 C305.28 766.19 305.95 766.19 306.62 766.19 C306.62 767.51 306.62 768.83 306.62 770.19 C307.28 770.19 307.95 770.19 308.62 770.19 C309.94 773.81 310.62 776.28 310.62 780.19 C311.28 780.19 311.95 780.19 312.62 780.19 C313.3 781.77 313.96 783.35 314.62 784.94 C315 785.82 315.37 786.7 315.75 787.61 C316.62 790.19 316.62 790.19 316.62 794.19 C317.28 794.19 317.95 794.19 318.62 794.19 C318.62 795.51 318.62 796.83 318.62 798.19 C319.28 798.19 319.95 798.19 320.62 798.19 C321.94 801.81 322.62 804.28 322.62 808.19 C323.28 808.19 323.95 808.19 324.62 808.19 C325.28 809.75 325.92 811.31 326.56 812.88 C326.92 813.75 327.28 814.62 327.65 815.51 C328.62 818.19 328.62 818.19 329.62 823.19 C97.96 823.19 -133.7 823.19 -372.38 823.19 C-371.88 820.71 -371.88 820.71 -371.38 818.19 C-370.71 818.19 -370.06 818.19 -369.38 818.19 C-369.27 817.36 -369.17 816.54 -369.06 815.69 C-368.26 811.59 -366.91 808.06 -365.38 804.19 C-364.71 804.19 -364.06 804.19 -363.38 804.19 C-363.27 803.35 -363.17 802.51 -363.07 801.65 C-362.29 797.76 -360.89 794.39 -359.25 790.81 C-358.62 789.4 -357.99 787.99 -357.36 786.59 C-357.03 785.87 -356.71 785.14 -356.37 784.4 C-354.73 780.76 -353.11 777.1 -351.5 773.44 C-351.2 772.77 -350.9 772.1 -350.6 771.42 C-349.26 768.38 -348.02 765.46 -347.38 762.19 C-346.72 762.19 -346.06 762.19 -345.38 762.19 C-345.3 761.4 -345.23 760.62 -345.15 759.81 C-344.1 754.92 -342.06 750.7 -339.94 746.19 C-336.27 738.34 -336.27 738.34 -333.38 730.19 C-332.72 730.19 -332.06 730.19 -331.38 730.19 C-331.28 729.36 -331.19 728.54 -331.09 727.69 C-330.24 723.53 -328.71 720.03 -326.94 716.19 C-324.83 711.57 -322.88 707.04 -321.38 702.19 C-320.72 702.19 -320.06 702.19 -319.38 702.19 C-319.38 700.87 -319.38 699.55 -319.38 698.19 C-316.29 696.42 -315.14 696.19 -311.38 696.19 C-311.38 695.53 -311.38 694.87 -311.38 694.19 C-310.57 693.88 -310.57 693.88 -309.75 693.56 C-304.16 691.36 -298.63 689.03 -293.12 686.62 C-292.45 686.33 -291.78 686.04 -291.09 685.74 C-288.04 684.4 -285.08 683.03 -282.14 681.47 C-279.38 680.19 -279.38 680.19 -275.38 680.19 C-275.38 679.53 -275.38 678.87 -275.38 678.19 C-274.49 677.86 -273.61 677.54 -272.71 677.2 C-271.55 676.76 -270.38 676.33 -269.19 675.88 C-268.04 675.45 -266.89 675.02 -265.71 674.57 C-262.7 673.32 -260.15 671.86 -257.38 670.19 C-255.43 669.4 -253.47 668.65 -251.5 667.94 C-245.13 665.56 -239.08 662.74 -232.98 659.74 C-229.1 658.07 -225.48 657.11 -221.38 656.19 C-221.38 655.53 -221.38 654.87 -221.38 654.19 C-220.06 654.19 -218.74 654.19 -217.38 654.19 C-217.38 653.53 -217.38 652.87 -217.38 652.19 C-215.8 651.51 -214.21 650.85 -212.62 650.19 C-211.74 649.82 -210.86 649.45 -209.95 649.06 C-207.37 648.19 -207.37 648.19 -203.38 648.19 C-203.38 647.53 -203.38 646.87 -203.38 646.19 C-202.75 645.95 -202.12 645.7 -201.47 645.45 C-197.27 643.81 -193.14 642.13 -189.12 640.06 C-184.51 637.7 -180.62 636.19 -175.38 636.19 C-175.38 635.53 -175.38 634.87 -175.38 634.19 C-172.29 632.42 -171.14 632.19 -167.38 632.19 C-167.38 631.53 -167.38 630.87 -167.38 630.19 C-166.06 630.19 -164.74 630.19 -163.38 630.19 C-163.38 629.53 -163.38 628.87 -163.38 628.19 C-161.4 628.19 -159.41 628.19 -157.38 628.19 C-157.38 627.53 -157.38 626.87 -157.38 626.19 C-156.06 626.19 -154.74 626.19 -153.38 626.19 C-153.38 625.53 -153.38 624.87 -153.38 624.19 C-152.06 624.19 -150.74 624.19 -149.38 624.19 C-149.38 623.53 -149.38 622.87 -149.38 622.19 C-135.07 617.18 -122.27 617.03 -107.38 620.19 C-107.11 619.65 -106.84 619.12 -106.56 618.56 C-105.7 616.83 -104.8 615.12 -103.88 613.41 C-102.23 609.87 -101.17 606.34 -100.25 602.56 C-100.08 601.93 -99.91 601.29 -99.74 600.64 C-94.97 581.54 -97.11 560.2 -97.35 540.68 C-97.37 538.46 -97.38 536.25 -97.38 534.03 C-96.96 523.29 -96.96 523.29 -100.58 513.55 C-103.76 510.5 -107.37 508.87 -111.38 507.19 C-113.76 505.64 -113.76 505.64 -115.38 504.19 C-115.38 503.53 -115.38 502.87 -115.38 502.19 C-116.69 501.53 -118.01 500.87 -119.38 500.19 C-119.38 499.53 -119.38 498.87 -119.38 498.19 C-119.95 497.94 -120.53 497.69 -121.12 497.44 C-123.7 496 -125.44 494.4 -127.38 492.19 C-127.38 491.53 -127.38 490.87 -127.38 490.19 C-128.69 489.53 -130.01 488.87 -131.38 488.19 C-131.38 487.53 -131.38 486.87 -131.38 486.19 C-132.03 486.19 -132.69 486.19 -133.38 486.19 C-133.38 485.53 -133.38 484.87 -133.38 484.19 C-134.03 484.19 -134.69 484.19 -135.38 484.19 C-136.78 482.32 -136.78 482.32 -138.31 479.88 C-140.4 476.55 -140.4 476.55 -142.96 473.61 C-146 470.55 -147.38 466.42 -147.38 462.19 C-148.03 462.19 -148.69 462.19 -149.38 462.19 C-152.65 453.66 -155.82 445.09 -158.75 436.44 C-159.01 435.68 -159.27 434.91 -159.55 434.13 C-160.72 430.61 -161.38 427.94 -161.38 424.19 C-162.05 424.61 -162.73 425.03 -163.42 425.46 C-164.76 426.29 -164.76 426.29 -166.12 427.12 C-167.45 427.94 -167.45 427.94 -168.8 428.78 C-175.23 432.29 -182.23 431.35 -189.38 431.19 C-190.14 431.18 -190.9 431.18 -191.68 431.17 C-202.48 430.54 -211.07 422.34 -218.38 415.19 C-218.96 414.64 -219.55 414.1 -220.16 413.54 C-221.38 412.19 -221.38 412.19 -221.38 410.19 C-222.03 410.19 -222.69 410.19 -223.38 410.19 C-223.38 409.53 -223.38 408.87 -223.38 408.19 C-224.03 408.19 -224.69 408.19 -225.38 408.19 C-226.03 406.21 -226.69 404.23 -227.38 402.19 C-228.03 402.19 -228.69 402.19 -229.38 402.19 C-232.38 396.44 -232.38 396.44 -232.38 394.19 C-233.03 394.19 -233.69 394.19 -234.38 394.19 C-234.71 392.21 -235.03 390.23 -235.38 388.19 C-236.03 388.19 -236.69 388.19 -237.38 388.19 C-241.19 378.14 -244.77 368.61 -244.69 357.75 C-244.68 357.01 -244.68 356.27 -244.68 355.5 C-244.54 348.21 -242.65 342.64 -239.38 336.19 C-238.72 336.19 -238.06 336.19 -237.38 336.19 C-237.17 335.63 -236.96 335.07 -236.75 334.5 C-234.85 331.3 -232.3 329.47 -229.38 327.19 C-228.38 326.35 -228.38 326.35 -227.38 325.5 C-222.44 322.26 -217.26 321.85 -211.5 321.88 C-210.83 321.86 -210.16 321.84 -209.47 321.83 C-203.79 321.82 -201.14 323.03 -195.38 325.19 C-196.37 319.25 -197.35 313.31 -198.38 307.19 C-198.38 312.16 -198.16 316.36 -197.38 321.19 C-218.78 303.88 -233.38 278.4 -237.38 251.19 C-237.82 245.84 -237.72 240.54 -237.38 235.19 C-238.04 235.11 -238.71 235.04 -239.39 234.96 C-251.28 233.27 -261.51 227.49 -269.06 218.09 C-276.94 206.93 -278.55 196.19 -278.56 182.81 C-278.57 181.71 -278.59 180.62 -278.6 179.48 C-278.61 173.35 -278.18 168.05 -276.38 162.19 C-276.05 162.19 -275.72 162.19 -275.38 162.19 C-275.16 163.24 -274.94 164.29 -274.71 165.37 C-272.42 175.74 -269.8 185.06 -260.38 191.19 C-255.84 193.95 -252.66 194.5 -247.38 194.19 C-248.14 193.69 -248.14 193.69 -248.91 193.19 C-256.89 187.68 -261.73 180.5 -264.38 171.19 C-267.12 154.18 -261.09 140.62 -251.47 126.93 C-248.03 122.43 -244.3 118.28 -240.38 114.19 C-239.68 113.43 -238.98 112.67 -238.26 111.88 C-220.75 93.38 -196.37 83.59 -171.38 81.19 C-172.2 80.98 -173.02 80.77 -173.87 80.56 C-181.89 78.34 -187.98 75.51 -194.38 70.19 C-195.01 69.66 -195.65 69.14 -196.3 68.6 C-206.56 59.27 -209.92 47.3 -212.38 34.19 C-212.57 33.2 -212.77 32.22 -212.97 31.2 C-213.48 27.39 -213.48 23.66 -213.44 19.81 C-213.43 19.08 -213.43 18.34 -213.42 17.58 C-213.41 15.78 -213.39 13.99 -213.38 12.19 C-211.22 14.34 -210.52 15.98 -209.31 18.75 C-204.56 28.36 -197.2 34.22 -187.38 38.19 C-172.33 43.2 -154.72 38.25 -140.38 33.19 C-139.77 32.98 -139.17 32.76 -138.56 32.55 C-135.75 31.55 -132.94 30.56 -130.13 29.57 C-122.09 26.72 -114.02 23.96 -105.94 21.25 C-104.78 20.86 -104.78 20.86 -103.6 20.47 C-90.58 16.12 -77.5 12.23 -64.18 8.89 C-62.26 8.41 -60.34 7.92 -58.42 7.42 C-51.41 5.6 -44.4 4.22 -37.25 3.06 C-36.24 2.89 -35.24 2.72 -34.2 2.55 C-22.74 0.67 -11.62 -0.02 0 0 Z " fill="#F5B587" transform="translate(391.375,21.8125)"/>
<path d="M0 0 C0 1.98 0 3.96 0 6 C-1.32 6 -2.64 6 -4 6 C-4 6.66 -4 7.32 -4 8 C-4.66 8 -5.32 8 -6 8 C-6 8.66 -6 9.32 -6 10 C-7.32 10 -8.64 10 -10 10 C-10 10.66 -10 11.32 -10 12 C-11.32 12 -12.64 12 -14 12 C-14 12.66 -14 13.32 -14 14 C-15.32 14 -16.64 14 -18 14 C-18 14.66 -18 15.32 -18 16 C-19.32 16 -20.64 16 -22 16 C-22 16.66 -22 17.32 -22 18 C-25.96 18 -29.92 18 -34 18 C-34 18.66 -34 19.32 -34 20 C-35.32 20 -36.64 20 -38 20 C-38 25.94 -38 31.88 -38 38 C-37.34 38 -36.68 38 -36 38 C-36 39.98 -36 41.96 -36 44 C-35.34 44 -34.68 44 -34 44 C-34 45.98 -34 47.96 -34 50 C-33.34 50 -32.68 50 -32 50 C-32 51.32 -32 52.64 -32 54 C-31.34 54 -30.68 54 -30 54 C-30 55.32 -30 56.64 -30 58 C-29.34 58 -28.68 58 -28 58 C-28 59.32 -28 60.64 -28 62 C-27.34 62 -26.68 62 -26 62 C-26 62.66 -26 63.32 -26 64 C-25.34 64 -24.68 64 -24 64 C-24 65.32 -24 66.64 -24 68 C-23.34 68 -22.68 68 -22 68 C-22 69.32 -22 70.64 -22 72 C-21.34 72 -20.68 72 -20 72 C-20 72.66 -20 73.32 -20 74 C-19.34 74 -18.68 74 -18 74 C-18 74.66 -18 75.32 -18 76 C-17.34 76 -16.68 76 -16 76 C-16 76.66 -16 77.32 -16 78 C-15.34 78 -14.68 78 -14 78 C-14 79.32 -14 80.64 -14 82 C-13.34 82 -12.68 82 -12 82 C-12 82.66 -12 83.32 -12 84 C-11.34 84 -10.68 84 -10 84 C-10 84.66 -10 85.32 -10 86 C-9.34 86 -8.68 86 -8 86 C-8 86.66 -8 87.32 -8 88 C-7.34 88 -6.68 88 -6 88 C-6 88.66 -6 89.32 -6 90 C-5.34 90 -4.68 90 -4 90 C-4 90.66 -4 91.32 -4 92 C-2.68 92 -1.36 92 0 92 C0 92.66 0 93.32 0 94 C0.66 94 1.32 94 2 94 C2 94.66 2 95.32 2 96 C2.66 96 3.32 96 4 96 C4 96.66 4 97.32 4 98 C5.32 98 6.64 98 8 98 C8 98.66 8 99.32 8 100 C8.66 100 9.32 100 10 100 C10 100.66 10 101.32 10 102 C11.32 102 12.64 102 14 102 C14 102.66 14 103.32 14 104 C14.66 104 15.32 104 16 104 C16 104.66 16 105.32 16 106 C17.32 106 18.64 106 20 106 C20 106.66 20 107.32 20 108 C21.32 108 22.64 108 24 108 C24 108.66 24 109.32 24 110 C25.32 110 26.64 110 28 110 C28 110.66 28 111.32 28 112 C29.98 112 31.96 112 34 112 C34 112.66 34 113.32 34 114 C35.32 114 36.64 114 38 114 C38 114.66 38 115.32 38 116 C39.32 116 40.64 116 42 116 C42 116.66 42 117.32 42 118 C43.15 117.96 44.31 117.92 45.5 117.88 C49.94 117.86 53.74 118.78 58 120 C58 120.66 58 121.32 58 122 C63.28 122 68.56 122 74 122 C74 122.66 74 123.32 74 124 C86.54 124 99.08 124 112 124 C112 123.34 112 122.68 112 122 C114.64 122 117.28 122 120 122 C120 121.34 120 120.68 120 120 C122.64 120 125.28 120 128 120 C128 119.34 128 118.68 128 118 C131.3 118 134.6 118 138 118 C138 117.34 138 116.68 138 116 C139.32 116 140.64 116 142 116 C142 115.34 142 114.68 142 114 C143.98 114 145.96 114 148 114 C148 113.34 148 112.68 148 112 C149.32 112 150.64 112 152 112 C152 111.34 152 110.68 152 110 C153.32 110 154.64 110 156 110 C156 109.34 156 108.68 156 108 C157.32 108 158.64 108 160 108 C160 107.34 160 106.68 160 106 C161.32 106 162.64 106 164 106 C164 105.34 164 104.68 164 104 C164.66 104 165.32 104 166 104 C166 103.34 166 102.68 166 102 C167.32 102 168.64 102 170 102 C170 101.34 170 100.68 170 100 C171.32 100 172.64 100 174 100 C174 99.34 174 98.68 174 98 C174.66 98 175.32 98 176 98 C176 97.34 176 96.68 176 96 C176.66 96 177.32 96 178 96 C178 95.34 178 94.68 178 94 C179.32 94 180.64 94 182 94 C182 93.34 182 92.68 182 92 C182.66 92 183.32 92 184 92 C184 91.34 184 90.68 184 90 C184.66 90 185.32 90 186 90 C186 89.34 186 88.68 186 88 C186.66 88 187.32 88 188 88 C188 87.34 188 86.68 188 86 C188.66 86 189.32 86 190 86 C190 85.34 190 84.68 190 84 C190.66 84 191.32 84 192 84 C192 83.34 192 82.68 192 82 C192.66 82 193.32 82 194 82 C194 81.34 194 80.68 194 80 C194.66 80 195.32 80 196 80 C196 78.68 196 77.36 196 76 C196.66 76 197.32 76 198 76 C198 75.34 198 74.68 198 74 C198.66 74 199.32 74 200 74 C200 73.34 200 72.68 200 72 C200.66 72 201.32 72 202 72 C202 71.34 202 70.68 202 70 C202.66 70 203.32 70 204 70 C204 68.68 204 67.36 204 66 C204.66 66 205.32 66 206 66 C206 64.68 206 63.36 206 62 C206.66 62 207.32 62 208 62 C208 61.34 208 60.68 208 60 C208.66 60 209.32 60 210 60 C210 58.02 210 56.04 210 54 C210.66 54 211.32 54 212 54 C212 53.34 212 52.68 212 52 C212.66 52 213.32 52 214 52 C214.06 51.32 214.12 50.65 214.18 49.95 C214.27 49.06 214.35 48.17 214.44 47.25 C214.52 46.37 214.6 45.49 214.68 44.58 C214.96 42.31 215.39 40.2 216 38 C216.66 38 217.32 38 218 38 C218.06 36.87 218.12 35.74 218.18 34.57 C218.27 33.09 218.35 31.61 218.44 30.12 C218.5 29.01 218.5 29.01 218.56 27.86 C218.89 22.23 218.89 22.23 220 20 C216.7 20 213.4 20 210 20 C210 19.34 210 18.68 210 18 C207.36 18 204.72 18 202 18 C202 17.34 202 16.68 202 16 C200.68 16 199.36 16 198 16 C198 15.34 198 14.68 198 14 C196.68 14 195.36 14 194 14 C194 13.34 194 12.68 194 12 C192.68 12 191.36 12 190 12 C190 11.34 190 10.68 190 10 C189.34 10 188.68 10 188 10 C188 9.34 188 8.68 188 8 C186.68 8 185.36 8 184 8 C184 7.34 184 6.68 184 6 C183.34 6 182.68 6 182 6 C182 5.34 182 4.68 182 4 C181.34 4 180.68 4 180 4 C180 2.68 180 1.36 180 0 C194.5 -5.8 210.18 -1.61 224 4 C224 4.66 224 5.32 224 6 C225.32 6 226.64 6 228 6 C228 6.66 228 7.32 228 8 C229.32 8 230.64 8 232 8 C232 8.66 232 9.32 232 10 C233.32 10 234.64 10 236 10 C236 10.66 236 11.32 236 12 C237.32 12 238.64 12 240 12 C240 12.66 240 13.32 240 14 C241.32 14 242.64 14 244 14 C244 14.66 244 15.32 244 16 C244.91 15.96 245.82 15.92 246.75 15.88 C249.88 16 251.39 16.39 254 18 C254 18.66 254 19.32 254 20 C254.91 20.14 255.82 20.29 256.75 20.44 C259.21 20.86 261.59 21.35 264 22 C264 22.66 264 23.32 264 24 C264.95 24.14 265.9 24.29 266.88 24.44 C270 25 270 25 272 26 C272 26.66 272 27.32 272 28 C272.83 28.1 273.65 28.21 274.5 28.31 C278.59 29.12 282.13 30.46 286 32 C286 32.66 286 33.32 286 34 C286.87 34.11 287.74 34.21 288.64 34.32 C292.13 35.03 294.62 36.14 297.75 37.81 C302.43 40.24 307.12 42.35 312.04 44.24 C314 45 314 45 316 46 C316 46.66 316 47.32 316 48 C317.32 48 318.64 48 320 48 C320 48.66 320 49.32 320 50 C320.78 49.92 321.57 49.84 322.38 49.75 C327.38 50.09 331.45 51.99 336 54 C336 54.66 336 55.32 336 56 C337.32 56 338.64 56 340 56 C340 56.66 340 57.32 340 58 C340.87 58.11 341.74 58.21 342.64 58.32 C346.13 59.03 348.62 60.14 351.75 61.81 C357.06 64.56 362.4 66.89 368 69 C369.19 69.45 369.19 69.45 370.4 69.91 C372.26 70.61 374.13 71.31 376 72 C376 72.66 376 73.32 376 74 C376.95 74.14 377.9 74.29 378.88 74.44 C382 75 382 75 384 76 C384 76.66 384 77.32 384 78 C385.32 78 386.64 78 388 78 C388.68 79.24 389.34 80.5 390 81.75 C390.37 82.45 390.74 83.14 391.12 83.86 C392 86 392 86 392 90 C392.66 90 393.32 90 394 90 C395.32 93.62 396 96.1 396 100 C396.66 100 397.32 100 398 100 C398.27 100.68 398.53 101.35 398.8 102.05 C399.16 102.94 399.51 103.83 399.88 104.75 C400.4 106.07 400.4 106.07 400.93 107.42 C401.93 109.96 401.93 109.96 403.13 112.08 C404 114 404 114 404 118 C404.66 118 405.32 118 406 118 C406.27 118.68 406.53 119.35 406.8 120.05 C407.16 120.94 407.51 121.83 407.88 122.75 C408.4 124.07 408.4 124.07 408.93 125.42 C409.93 127.96 409.93 127.96 411.13 130.08 C412 132 412 132 412 136 C412.66 136 413.32 136 414 136 C414 137.98 414 139.96 414 142 C414.66 142 415.32 142 416 142 C416 143.32 416 144.64 416 146 C416.66 146 417.32 146 418 146 C418 147.32 418 148.64 418 150 C418.66 150 419.32 150 420 150 C421.32 153.62 422 156.1 422 160 C422.66 160 423.32 160 424 160 C424.68 161.58 425.34 163.16 426 164.75 C426.37 165.63 426.74 166.51 427.12 167.42 C428 170 428 170 428 174 C428.66 174 429.32 174 430 174 C430 175.32 430 176.64 430 178 C430.66 178 431.32 178 432 178 C433.32 181.62 434 184.1 434 188 C434.66 188 435.32 188 436 188 C436.65 189.56 437.3 191.12 437.94 192.69 C438.3 193.56 438.66 194.43 439.03 195.32 C440 198 440 198 441 203 C209.34 203 -22.32 203 -261 203 C-260.67 201.35 -260.34 199.7 -260 198 C-259.34 198 -258.68 198 -258 198 C-257.9 197.17 -257.79 196.35 -257.69 195.5 C-256.88 191.41 -255.54 187.87 -254 184 C-253.34 184 -252.68 184 -252 184 C-251.9 183.16 -251.8 182.32 -251.7 181.46 C-250.91 177.57 -249.52 174.2 -247.88 170.62 C-247.24 169.22 -246.61 167.81 -245.98 166.4 C-245.66 165.68 -245.33 164.96 -245 164.21 C-243.35 160.57 -241.74 156.91 -240.12 153.25 C-239.68 152.25 -239.68 152.25 -239.22 151.23 C-237.88 148.19 -236.64 145.27 -236 142 C-235.34 142 -234.68 142 -234 142 C-233.93 141.22 -233.85 140.43 -233.78 139.62 C-232.73 134.73 -230.68 130.51 -228.56 126 C-224.89 118.16 -224.89 118.16 -222 110 C-221.34 110 -220.68 110 -220 110 C-219.91 109.17 -219.81 108.35 -219.71 107.5 C-218.86 103.34 -217.33 99.84 -215.56 96 C-213.46 91.39 -211.51 86.85 -210 82 C-209.34 82 -208.68 82 -208 82 C-208 80.68 -208 79.36 -208 78 C-204.91 76.24 -203.77 76 -200 76 C-200 75.34 -200 74.68 -200 74 C-199.46 73.79 -198.93 73.58 -198.38 73.37 C-192.78 71.17 -187.26 68.84 -181.75 66.44 C-181.08 66.14 -180.4 65.85 -179.71 65.55 C-176.66 64.21 -173.71 62.85 -170.77 61.29 C-168 60 -168 60 -164 60 C-164 59.34 -164 58.68 -164 58 C-163.12 57.67 -162.24 57.35 -161.33 57.01 C-160.17 56.57 -159.01 56.14 -157.81 55.69 C-156.09 55.04 -156.09 55.04 -154.33 54.39 C-151.33 53.14 -148.78 51.67 -146 50 C-144.06 49.21 -142.1 48.46 -140.12 47.75 C-133.75 45.37 -127.7 42.55 -121.61 39.55 C-117.73 37.88 -114.11 36.92 -110 36 C-110 35.34 -110 34.68 -110 34 C-108.68 34 -107.36 34 -106 34 C-106 33.34 -106 32.68 -106 32 C-104.42 31.32 -102.84 30.66 -101.25 30 C-99.93 29.44 -99.93 29.44 -98.58 28.88 C-96 28 -96 28 -92 28 C-92 27.34 -92 26.68 -92 26 C-91.06 25.64 -91.06 25.64 -90.09 25.27 C-85.89 23.62 -81.76 21.94 -77.75 19.88 C-73.14 17.51 -69.25 16 -64 16 C-64 15.34 -64 14.68 -64 14 C-60.91 12.24 -59.77 12 -56 12 C-56 11.34 -56 10.68 -56 10 C-54.68 10 -53.36 10 -52 10 C-52 9.34 -52 8.68 -52 8 C-50.02 8 -48.04 8 -46 8 C-46 7.34 -46 6.68 -46 6 C-44.68 6 -43.36 6 -42 6 C-42 5.34 -42 4.68 -42 4 C-40.68 4 -39.36 4 -38 4 C-38 3.34 -38 2.68 -38 2 C-25.53 -2.36 -12.84 -4.28 0 0 Z " fill="#FDAA2E" transform="translate(280,642)"/>
<path d="M0 0 C1.06 0 1.06 0 2.14 0 C31.3 0.05 60 3.03 82.44 23.44 C96.66 38.83 100.52 58.23 99.83 78.5 C99.36 84.63 97.62 90.39 95.62 96.19 C96.23 95.8 96.84 95.41 97.46 95.02 C110.93 86.64 124.6 82.6 140.5 82.75 C141.64 82.76 142.78 82.77 143.95 82.77 C152.48 82.94 159.71 83.84 167.62 87.19 C168.66 87.6 169.7 88.01 170.77 88.44 C186.55 95.43 192.97 108.33 200.02 123.11 C203.49 130.01 207.98 132.82 215.12 135.5 C216.36 135.84 216.36 135.84 217.62 136.19 C217.62 136.52 217.62 136.85 217.62 137.19 C205.21 138.13 197.32 136.74 186.62 130.19 C185.96 129.86 185.31 129.53 184.62 129.19 C185.03 129.58 185.43 129.97 185.84 130.38 C198.52 143.72 207.59 163.82 208.62 182.19 C208.69 183.31 208.75 184.44 208.82 185.6 C209.29 201.59 205.55 215.84 198.62 230.19 C198.3 230.19 197.96 230.19 197.62 230.19 C197.5 228.87 197.38 227.56 197.26 226.21 C197.09 224.47 196.92 222.74 196.75 221 C196.67 220.14 196.59 219.27 196.51 218.38 C196.08 214 195.6 210.2 193.62 206.19 C193.68 207.99 193.68 207.99 193.73 209.82 C193.98 222.55 192.92 234.67 190.62 247.19 C190.42 248.29 190.42 248.29 190.22 249.42 C186.97 266.59 180.54 283.18 171.62 298.19 C170.28 294.15 171.56 291.15 172.62 287.19 C173.45 283.39 173.67 279.86 173.65 275.99 C173.65 275.09 173.64 274.19 173.64 273.27 C173.63 272.58 173.63 271.89 173.62 271.19 C173.48 271.87 173.33 272.56 173.19 273.27 C170.41 286.32 167.47 299.32 163.94 312.19 C163.65 313.25 163.37 314.31 163.07 315.4 C162.8 316.38 162.52 317.36 162.24 318.38 C162 319.23 161.76 320.09 161.51 320.98 C159.98 324.79 156.96 326.93 153.62 329.19 C152.96 329.19 152.31 329.19 151.62 329.19 C151.24 330.02 151.24 330.02 150.84 330.88 C149.48 333.46 147.89 335.75 146.19 338.12 C144.34 340.71 142.58 343.26 140.96 346 C140.3 347.08 140.3 347.08 139.62 348.19 C139.3 348.19 138.96 348.19 138.62 348.19 C138.61 347.16 138.59 346.14 138.56 345.08 C138.03 318.09 137.31 291.68 131.62 265.19 C130.31 266.51 128.99 267.83 127.62 269.19 C127.62 252.69 127.62 236.19 127.62 219.19 C126.96 219.19 126.31 219.19 125.62 219.19 C125.54 220.32 125.46 221.46 125.38 222.62 C124.78 227.59 122.84 231.74 120.62 236.19 C120.3 236.19 119.96 236.19 119.62 236.19 C119.59 235.63 119.56 235.07 119.52 234.5 C118.05 212.37 112.47 194.27 97.62 177.19 C102.32 171.25 107.61 166.76 113.62 162.19 C111.37 163.45 109.12 164.73 106.88 166 C106.24 166.36 105.61 166.71 104.95 167.08 C102.27 168.6 99.81 170.04 97.42 172.01 C95.62 173.19 95.62 173.19 93.77 173.09 C90.81 171.84 88.1 170.28 85.31 168.69 C64.57 157.32 42.31 150.72 18.69 149.62 C17.38 149.56 17.38 149.56 16.04 149.49 C13.9 149.39 11.76 149.29 9.62 149.19 C9.04 151.07 9.04 151.07 8.45 152.98 C6.54 158.7 4.05 164.08 1.44 169.5 C0.95 170.52 0.46 171.53 -0.04 172.58 C-3.63 179.91 -7.43 186.67 -12.38 193.19 C-13.36 194.5 -13.36 194.5 -14.36 195.84 C-26.65 211.7 -41.96 223.31 -62.31 226 C-63.32 226.06 -64.33 226.12 -65.38 226.19 C-63.54 224.28 -61.73 222.45 -59.61 220.86 C-47.44 211.39 -41.91 195.2 -39.68 180.43 C-39.11 174.36 -39.23 168.29 -39.38 162.19 C-39.85 163.13 -40.32 164.07 -40.81 165.05 C-57.87 198.46 -85.83 218.32 -120.62 230.3 C-131.62 233.71 -143.02 235.36 -154.38 237.19 C-155.54 243.25 -156.6 249.21 -157 255.38 C-157.07 256.48 -157.15 257.59 -157.23 258.73 C-157.3 259.95 -157.3 259.95 -157.38 261.19 C-160.5 258.42 -161.9 256.56 -162.62 252.44 C-162.77 251.64 -162.92 250.84 -163.08 250.02 C-163.18 249.41 -163.27 248.81 -163.38 248.19 C-164.03 248.19 -164.69 248.19 -165.38 248.19 C-165.42 248.85 -165.47 249.52 -165.52 250.2 C-165.93 255.5 -166.43 260.77 -167.09 266.04 C-171.12 298.4 -170.8 330.64 -170.38 363.19 C-172.26 360.36 -173.61 357.53 -174.99 354.44 C-179.33 344.77 -184.34 336.41 -191.69 328.69 C-196.75 322.97 -197.56 314.54 -198.38 307.19 C-198.47 311.97 -198.15 316.46 -197.38 321.19 C-218.78 303.88 -233.38 278.4 -237.38 251.19 C-237.82 245.84 -237.72 240.54 -237.38 235.19 C-238.04 235.11 -238.71 235.04 -239.39 234.96 C-251.28 233.27 -261.51 227.49 -269.06 218.09 C-276.94 206.93 -278.55 196.19 -278.56 182.81 C-278.57 181.71 -278.59 180.62 -278.6 179.48 C-278.61 173.35 -278.18 168.05 -276.38 162.19 C-276.05 162.19 -275.72 162.19 -275.38 162.19 C-275.16 163.24 -274.94 164.29 -274.71 165.37 C-272.42 175.74 -269.8 185.06 -260.38 191.19 C-255.84 193.95 -252.66 194.5 -247.38 194.19 C-248.14 193.69 -248.14 193.69 -248.91 193.19 C-256.89 187.68 -261.73 180.5 -264.38 171.19 C-267.12 154.18 -261.09 140.62 -251.47 126.93 C-248.03 122.43 -244.3 118.28 -240.38 114.19 C-239.33 113.05 -239.33 113.05 -238.26 111.88 C-220.75 93.38 -196.37 83.59 -171.38 81.19 C-172.2 80.98 -173.02 80.77 -173.87 80.56 C-181.89 78.34 -187.98 75.51 -194.38 70.19 C-195.01 69.66 -195.65 69.14 -196.3 68.6 C-206.56 59.27 -209.92 47.3 -212.38 34.19 C-212.57 33.2 -212.77 32.22 -212.97 31.2 C-213.48 27.39 -213.48 23.66 -213.44 19.81 C-213.43 19.08 -213.43 18.34 -213.42 17.58 C-213.41 15.78 -213.39 13.99 -213.38 12.19 C-211.22 14.34 -210.52 15.98 -209.31 18.75 C-204.56 28.36 -197.2 34.22 -187.38 38.19 C-172.33 43.2 -154.72 38.25 -140.38 33.19 C-139.77 32.98 -139.17 32.76 -138.56 32.55 C-135.75 31.55 -132.94 30.56 -130.13 29.57 C-122.09 26.72 -114.02 23.96 -105.94 21.25 C-105.17 20.99 -104.39 20.73 -103.6 20.47 C-90.58 16.12 -77.5 12.23 -64.18 8.89 C-62.26 8.41 -60.34 7.92 -58.42 7.42 C-51.41 5.6 -44.4 4.22 -37.25 3.06 C-36.24 2.89 -35.24 2.72 -34.2 2.55 C-22.74 0.67 -11.62 -0.02 0 0 Z " fill="#583935" transform="translate(391.375,21.8125)"/>
<path d="M0 0 C0 1.98 0 3.96 0 6 C-1.32 6 -2.64 6 -4 6 C-4 6.66 -4 7.32 -4 8 C-4.66 8 -5.32 8 -6 8 C-6 8.66 -6 9.32 -6 10 C-7.32 10 -8.64 10 -10 10 C-10 10.66 -10 11.32 -10 12 C-11.32 12 -12.64 12 -14 12 C-14 12.66 -14 13.32 -14 14 C-15.32 14 -16.64 14 -18 14 C-18 14.66 -18 15.32 -18 16 C-19.32 16 -20.64 16 -22 16 C-22 16.66 -22 17.32 -22 18 C-25.96 18 -29.92 18 -34 18 C-34 18.66 -34 19.32 -34 20 C-35.32 20 -36.64 20 -38 20 C-38 25.94 -38 31.88 -38 38 C-37.34 38 -36.68 38 -36 38 C-36 39.98 -36 41.96 -36 44 C-35.34 44 -34.68 44 -34 44 C-34 45.98 -34 47.96 -34 50 C-33.34 50 -32.68 50 -32 50 C-32 51.32 -32 52.64 -32 54 C-31.34 54 -30.68 54 -30 54 C-30 55.32 -30 56.64 -30 58 C-29.34 58 -28.68 58 -28 58 C-28 59.32 -28 60.64 -28 62 C-27.34 62 -26.68 62 -26 62 C-26 62.66 -26 63.32 -26 64 C-25.34 64 -24.68 64 -24 64 C-24 65.32 -24 66.64 -24 68 C-23.34 68 -22.68 68 -22 68 C-22 69.32 -22 70.64 -22 72 C-21.34 72 -20.68 72 -20 72 C-20 72.66 -20 73.32 -20 74 C-19.34 74 -18.68 74 -18 74 C-18 74.66 -18 75.32 -18 76 C-17.34 76 -16.68 76 -16 76 C-16 76.66 -16 77.32 -16 78 C-15.34 78 -14.68 78 -14 78 C-14 79.32 -14 80.64 -14 82 C-13.34 82 -12.68 82 -12 82 C-12 82.66 -12 83.32 -12 84 C-11.34 84 -10.68 84 -10 84 C-10 84.66 -10 85.32 -10 86 C-9.34 86 -8.68 86 -8 86 C-8 86.66 -8 87.32 -8 88 C-7.34 88 -6.68 88 -6 88 C-6 88.66 -6 89.32 -6 90 C-5.34 90 -4.68 90 -4 90 C-4 90.66 -4 91.32 -4 92 C-2.68 92 -1.36 92 0 92 C0 92.66 0 93.32 0 94 C0.66 94 1.32 94 2 94 C2 94.66 2 95.32 2 96 C2.66 96 3.32 96 4 96 C4 96.66 4 97.32 4 98 C5.32 98 6.64 98 8 98 C8 98.66 8 99.32 8 100 C8.66 100 9.32 100 10 100 C10 100.66 10 101.32 10 102 C11.32 102 12.64 102 14 102 C14 102.66 14 103.32 14 104 C14.66 104 15.32 104 16 104 C16 104.66 16 105.32 16 106 C17.32 106 18.64 106 20 106 C20 106.66 20 107.32 20 108 C21.32 108 22.64 108 24 108 C24 108.66 24 109.32 24 110 C25.32 110 26.64 110 28 110 C28 110.66 28 111.32 28 112 C29.98 112 31.96 112 34 112 C34 112.66 34 113.32 34 114 C35.32 114 36.64 114 38 114 C38 114.66 38 115.32 38 116 C39.32 116 40.64 116 42 116 C42 116.66 42 117.32 42 118 C43.15 117.96 44.31 117.92 45.5 117.88 C49.94 117.86 53.74 118.78 58 120 C58 120.66 58 121.32 58 122 C63.28 122 68.56 122 74 122 C74 122.66 74 123.32 74 124 C86.54 124 99.08 124 112 124 C112 123.34 112 122.68 112 122 C114.64 122 117.28 122 120 122 C120 121.34 120 120.68 120 120 C122.64 120 125.28 120 128 120 C128 119.34 128 118.68 128 118 C131.3 118 134.6 118 138 118 C138 117.34 138 116.68 138 116 C139.32 116 140.64 116 142 116 C142 115.34 142 114.68 142 114 C143.98 114 145.96 114 148 114 C148 113.34 148 112.68 148 112 C149.32 112 150.64 112 152 112 C152 111.34 152 110.68 152 110 C153.32 110 154.64 110 156 110 C156 109.34 156 108.68 156 108 C157.32 108 158.64 108 160 108 C160 107.34 160 106.68 160 106 C161.32 106 162.64 106 164 106 C164 105.34 164 104.68 164 104 C164.66 104 165.32 104 166 104 C166 103.34 166 102.68 166 102 C167.32 102 168.64 102 170 102 C170 101.34 170 100.68 170 100 C171.32 100 172.64 100 174 100 C174 99.34 174 98.68 174 98 C174.66 98 175.32 98 176 98 C176 97.34 176 96.68 176 96 C176.66 96 177.32 96 178 96 C178 95.34 178 94.68 178 94 C179.32 94 180.64 94 182 94 C182 93.34 182 92.68 182 92 C182.66 92 183.32 92 184 92 C184 91.34 184 90.68 184 90 C184.66 90 185.32 90 186 90 C186 89.34 186 88.68 186 88 C186.66 88 187.32 88 188 88 C188 87.34 188 86.68 188 86 C188.66 86 189.32 86 190 86 C190 85.34 190 84.68 190 84 C190.66 84 191.32 84 192 84 C192 83.34 192 82.68 192 82 C192.66 82 193.32 82 194 82 C194 81.34 194 80.68 194 80 C194.66 80 195.32 80 196 80 C196 78.68 196 77.36 196 76 C196.66 76 197.32 76 198 76 C198 75.34 198 74.68 198 74 C198.66 74 199.32 74 200 74 C200 73.34 200 72.68 200 72 C200.66 72 201.32 72 202 72 C202 71.34 202 70.68 202 70 C202.66 70 203.32 70 204 70 C204 68.68 204 67.36 204 66 C204.66 66 205.32 66 206 66 C206 64.68 206 63.36 206 62 C206.66 62 207.32 62 208 62 C208 61.34 208 60.68 208 60 C208.66 60 209.32 60 210 60 C210 58.02 210 56.04 210 54 C210.66 54 211.32 54 212 54 C212 53.34 212 52.68 212 52 C212.66 52 213.32 52 214 52 C214.06 51.32 214.12 50.65 214.18 49.95 C214.27 49.06 214.35 48.17 214.44 47.25 C214.52 46.37 214.6 45.49 214.68 44.58 C214.96 42.31 215.39 40.2 216 38 C216.66 38 217.32 38 218 38 C218.06 36.87 218.12 35.74 218.18 34.57 C218.27 33.09 218.35 31.61 218.44 30.12 C218.5 29.01 218.5 29.01 218.56 27.86 C218.89 22.23 218.89 22.23 220 20 C216.7 20 213.4 20 210 20 C210 19.34 210 18.68 210 18 C207.36 18 204.72 18 202 18 C202 17.34 202 16.68 202 16 C200.68 16 199.36 16 198 16 C198 15.34 198 14.68 198 14 C196.68 14 195.36 14 194 14 C194 13.34 194 12.68 194 12 C192.68 12 191.36 12 190 12 C190 11.34 190 10.68 190 10 C189.34 10 188.68 10 188 10 C188 9.34 188 8.68 188 8 C186.68 8 185.36 8 184 8 C184 7.34 184 6.68 184 6 C183.34 6 182.68 6 182 6 C182 5.34 182 4.68 182 4 C181.34 4 180.68 4 180 4 C180 2.68 180 1.36 180 0 C194.5 -5.8 210.18 -1.61 224 4 C224 4.66 224 5.32 224 6 C225.32 6 226.64 6 228 6 C228 6.66 228 7.32 228 8 C229.32 8 230.64 8 232 8 C232 8.66 232 9.32 232 10 C233.32 10 234.64 10 236 10 C236 10.66 236 11.32 236 12 C237.32 12 238.64 12 240 12 C240 12.66 240 13.32 240 14 C241.32 14 242.64 14 244 14 C244 14.66 244 15.32 244 16 C244.95 15.96 245.9 15.92 246.88 15.88 C250 16 250 16 252 18 C250.68 18 249.36 18 248 18 C247.99 18.97 247.97 19.94 247.96 20.95 C247.26 45.06 239.38 65.08 228 86 C227.34 86 226.68 86 226 86 C225.74 86.73 225.48 87.46 225.21 88.22 C221.51 96.73 214.11 103.31 207 109 C205.89 110.14 205.89 110.14 204.75 111.31 C194.84 121 194.84 121 191 121 C191 121.66 191 122.32 191 123 C171.94 138.51 144.15 147.8 120 151 C118.25 151.25 118.25 151.25 116.46 151.51 C111.7 152.1 106.98 152.2 102.18 152.24 C101.26 152.25 100.33 152.26 99.38 152.27 C96.4 152.29 93.42 152.3 90.44 152.31 C88.92 152.32 88.92 152.32 87.37 152.32 C69.99 152.33 53.62 151.44 37.06 145.71 C34.95 144.98 32.82 144.3 30.69 143.62 C20.01 140.04 10 135.13 0 130 C0 129.34 0 128.68 0 128 C-0.88 127.74 -1.77 127.49 -2.68 127.22 C-8.17 125.2 -12.4 121.56 -17 118 C-17.96 117.26 -18.92 116.52 -19.91 115.75 C-25.59 111.25 -30.39 106.57 -35 101 C-36.41 99.41 -37.83 97.83 -39.25 96.25 C-46 88.74 -46 88.74 -46 86 C-46.66 86 -47.32 86 -48 86 C-48.37 85.07 -48.74 84.14 -49.12 83.19 C-50.53 79.89 -52.19 76.81 -53.94 73.69 C-56.75 68.56 -59.1 63.53 -61 58 C-61.22 57.4 -61.43 56.81 -61.65 56.19 C-66.4 42.81 -66.58 30.09 -66 16 C-65.34 16 -64.68 16 -64 16 C-64 15.34 -64 14.68 -64 14 C-60.91 12.24 -59.77 12 -56 12 C-56 11.34 -56 10.68 -56 10 C-54.68 10 -53.36 10 -52 10 C-52 9.34 -52 8.68 -52 8 C-50.02 8 -48.04 8 -46 8 C-46 7.34 -46 6.68 -46 6 C-44.68 6 -43.36 6 -42 6 C-42 5.34 -42 4.68 -42 4 C-40.68 4 -39.36 4 -38 4 C-38 3.34 -38 2.68 -38 2 C-25.53 -2.36 -12.84 -4.28 0 0 Z " fill="#FEE253" transform="translate(280,642)"/>
<path d="M0 0 C1.98 0.99 1.98 0.99 4 2 C4 2.66 4 3.32 4 4 C4.88 4.26 5.77 4.53 6.68 4.8 C9.91 5.97 12.29 7.33 15.12 9.25 C20.88 13 26.8 16.05 33 19 C34.17 19.57 35.33 20.13 36.53 20.72 C54.23 29.25 73.33 38.27 93.12 32 C107.16 27.07 123.11 21 135 12 C138.97 10.12 142.65 8.66 147 8 C147 7.34 147 6.68 147 6 C148.65 5.67 150.3 5.34 152 5 C152.12 18.38 151.85 31.65 151 45 C150.45 45.26 149.89 45.51 149.32 45.78 C146.79 46.95 144.27 48.13 141.75 49.31 C140.88 49.72 140 50.12 139.11 50.54 C137.84 51.13 137.84 51.13 136.55 51.74 C135.77 52.1 135 52.46 134.2 52.83 C131.94 54.03 130.03 55.45 128 57 C126.5 57.68 124.98 58.3 123.44 58.88 C119.79 60.28 116.23 61.78 112.69 63.44 C106.57 66.25 100.32 68.66 94 71 C93.16 71.32 92.32 71.65 91.46 71.98 C73.07 78.72 53.15 67.51 36.68 59.93 C32.05 57.75 27.51 55.41 23 53 C21.72 52.32 21.72 52.32 20.42 51.63 C17.65 50.16 14.88 48.68 12.12 47.19 C11.25 46.72 10.37 46.25 9.47 45.77 C8.25 45.1 8.25 45.1 7.01 44.42 C5.92 43.83 5.92 43.83 4.81 43.22 C3 42 3 42 1 39 C0.68 36.53 0.48 34.17 0.38 31.69 C0.34 30.96 0.3 30.23 0.26 29.48 C-0.19 19.66 -0.09 9.83 0 0 Z " fill="#F09B68" transform="translate(294,538)"/>
<path d="M0 0 C0.5 1.49 0.5 1.49 1 3 C-1.53 6.09 -4.22 6.91 -8 8 C-5.69 8.33 -3.38 8.66 -1 9 C-1.66 16.92 -2.32 24.84 -3 33 C-7.5 28.5 -7.5 28.5 -8.25 24.25 C-8.4 23.45 -8.55 22.65 -8.7 21.83 C-8.8 21.22 -8.9 20.62 -9 20 C-9.66 20 -10.32 20 -11 20 C-11.05 20.66 -11.1 21.33 -11.15 22.01 C-11.56 27.31 -12.05 32.58 -12.71 37.85 C-16.74 70.21 -16.42 102.46 -16 135 C-17.88 132.17 -19.23 129.34 -20.61 126.25 C-24.96 116.59 -29.97 108.22 -37.31 100.5 C-42.37 94.78 -43.18 86.36 -44 79 C-44.1 83.78 -43.77 88.28 -43 93 C-62.26 77.43 -78.69 52.96 -82 28 C-82.17 24.49 -82.15 20.99 -82.1 17.48 C-82.09 16.56 -82.08 15.65 -82.08 14.7 C-82.06 12.47 -82.03 10.23 -82 8 C-80.72 8.03 -79.45 8.05 -78.13 8.08 C-38.17 9.94 -38.17 9.94 0 0 Z " fill="#1E0D0B" transform="translate(237,250)"/>
<path d="M0 0 C10.45 6.3 16.71 15.34 21.25 26.5 C21.63 27.42 22.02 28.34 22.41 29.29 C25.36 36.52 27.77 43.7 29.56 51.31 C29.86 52.55 30.16 53.79 30.46 55.07 C31.72 60.59 32.73 65.62 32.56 71.31 C27.86 69.89 23.65 67.9 19.31 65.62 C-0.15 55.72 -20 49.83 -41.88 48.75 C-42.7 48.71 -43.53 48.66 -44.38 48.62 C-46.4 48.51 -48.42 48.41 -50.44 48.31 C-47.48 39.89 -44.31 31.68 -40.31 23.69 C-39.83 22.71 -39.83 22.71 -39.33 21.72 C-34.9 13.05 -29.1 2.99 -19.8 -1.06 C-13.34 -2.77 -6.13 -2.88 0 0 Z " fill="#200D0B" transform="translate(452.4375,122.6875)"/>
<path d="M0 0 C7.66 6.55 14.48 13.89 16.46 24.03 C12.78 20.54 9.77 16.48 6.62 12.52 C4.53 9.88 4.53 9.88 1.46 8.03 C1.96 9.51 1.96 9.51 2.46 11.03 C3.52 19.5 0.87 26.28 -3.66 33.34 C-9.28 38.59 -14.91 41.31 -22.66 41.53 C-29.84 41.19 -35.7 39.52 -41.15 34.62 C-46.74 28.19 -48.94 21.14 -48.89 12.77 C-48.12 6.85 -44.79 1.91 -41.54 -2.97 C-51.65 -2.05 -59.63 1.48 -68.54 6.03 C-68.18 16.55 -64.08 24.83 -56.66 32.28 C-55.3 33.54 -53.93 34.8 -52.54 36.03 C-53.53 36.52 -53.53 36.52 -54.54 37.03 C-65.69 30.91 -72.34 20.89 -76.54 9.03 C-77.38 5.71 -78.04 2.41 -78.54 -0.97 C-53.28 -9.08 -23.12 -17.99 0 0 Z " fill="#A67D52" transform="translate(314.53515625,333.97265625)"/>
<path d="M0 0 C0.2 12.4 -6.28 23.14 -14.64 31.87 C-18.15 35.04 -21.92 37.62 -26 40 C-26.66 39.67 -27.32 39.34 -28 39 C-27.43 38.55 -26.86 38.1 -26.28 37.64 C-18.91 31.5 -13.08 24.2 -10 15 C-9.76 12.79 -9.76 12.79 -9.88 10.69 C-9.92 9.47 -9.96 8.25 -10 7 C-22.82 0.07 -22.82 0.07 -37 -2 C-36.37 -1.06 -36.37 -1.06 -35.72 -0.1 C-35.17 0.72 -34.63 1.53 -34.06 2.38 C-33.52 3.19 -32.97 4 -32.41 4.84 C-28.66 10.59 -29.51 17.36 -30 24 C-31.91 30.9 -36.57 35.7 -42.69 39.25 C-49.16 42.67 -54.69 42.69 -62 42 C-69.19 39.69 -74.39 34.66 -78.03 28.16 C-80.51 22.56 -80.27 17.02 -80 11 C-80 10.34 -80 9.68 -80 9 C-85.57 14.19 -90.03 19.5 -94 26 C-94.33 25.34 -94.66 24.68 -95 24 C-89.27 9.65 -77.89 -0.28 -64.39 -7.02 C-45.15 -14.9 -18.47 -6.92 0 0 Z " fill="#9F7750" transform="translate(508,333)"/>
<path d="M0 0 C3.49 3.84 3.61 7.95 3.49 12.94 C2.47 19.27 -0.8 26.96 -6 31 C-6.99 31 -7.98 31 -9 31 C-9 32.32 -9 33.64 -9 35 C-10.66 35.69 -12.33 36.35 -14 37 C-14.63 37.26 -15.26 37.53 -15.91 37.8 C-24.01 40.91 -32.56 40.88 -41 39 C-41 38.34 -41 37.68 -41 37 C-41.64 36.9 -42.28 36.79 -42.94 36.69 C-43.62 36.46 -44.3 36.23 -45 36 C-45.5 34.51 -45.5 34.51 -46 33 C-47.9 31.75 -47.9 31.75 -50.19 30.56 C-56.15 26.74 -58.71 21.58 -61 15 C-62.11 9.51 -60.94 4.72 -58 0 C-55.18 -2.08 -52.19 -3.55 -49 -5 C-48.37 -5.31 -47.75 -5.62 -47.1 -5.94 C-31.89 -13.09 -13.19 -9.51 0 0 Z " fill="#EF9C69" transform="translate(401,409)"/>
<path d="M0 0 C2.87 0.91 5.05 0.37 7.91 -0.39 C9.57 -0.76 11.24 -1.11 12.91 -1.39 C13.41 -0.9 13.41 -0.9 13.91 -0.39 C16.24 -0.03 18.58 0.31 20.91 0.61 C20.58 3.25 20.25 5.89 19.91 8.61 C30.8 8.61 41.69 8.61 52.91 8.61 C52.25 9.93 51.59 11.25 50.91 12.61 C49.92 12.61 48.93 12.61 47.91 12.61 C47.81 13.18 47.71 13.76 47.6 14.36 C46.81 16.96 45.72 18.58 43.91 20.61 C43.25 20.61 42.59 20.61 41.91 20.61 C41.91 21.27 41.91 21.93 41.91 22.61 C41.25 22.61 40.59 22.61 39.91 22.61 C39.91 23.27 39.91 23.93 39.91 24.61 C37.42 25.91 34.92 27.2 32.41 28.48 C31.37 29.03 31.37 29.03 30.3 29.59 C21.51 34.06 13.8 34.95 4.04 34.92 C3.01 34.93 1.99 34.95 0.93 34.97 C-8.28 34.97 -15.98 33.19 -23.96 28.48 C-27.01 26.69 -29.6 25.27 -33.09 24.61 C-33.42 23.29 -33.75 21.97 -34.09 20.61 C-34.75 20.61 -35.41 20.61 -36.09 20.61 C-36.09 19.95 -36.09 19.29 -36.09 18.61 C-36.75 18.61 -37.41 18.61 -38.09 18.61 C-38.09 17.95 -38.09 17.29 -38.09 16.61 C-38.75 16.61 -39.41 16.61 -40.09 16.61 C-40.42 14.63 -40.75 12.65 -41.09 10.61 C-43.4 9.95 -45.71 9.29 -48.09 8.61 C-48.09 8.28 -48.09 7.95 -48.09 7.61 C-47 7.48 -47 7.48 -45.88 7.34 C-39.05 6.39 -33.33 4.63 -27.04 1.85 C-17.65 -2.1 -9.57 -3.94 0 0 Z " fill="#F39050" transform="translate(368.0859375,471.39453125)"/>
<path d="M0 0 C6.26 4.59 12.1 9.77 17.89 14.92 C19.3 16.13 20.78 17.26 22.27 18.37 C24.56 20.36 25.18 21.27 25.75 24.19 C25.89 24.84 26.03 25.48 26.18 26.15 C26.47 28.54 26.48 30.85 26.44 33.25 C25.78 32.69 25.78 32.69 25.11 32.11 C13.47 22.72 0.31 19.89 -14.31 19.93 C-16.46 19.94 -18.61 19.91 -20.77 19.89 C-34.32 19.83 -46.95 22.08 -59.79 26.48 C-62.53 27.24 -64.74 27.4 -67.56 27.25 C-67.26 20.12 -65.85 14.58 -62.56 8.25 C-66 14.54 -68.31 20.18 -69.56 27.25 C-70.55 27.25 -71.54 27.25 -72.56 27.25 C-72.56 26.59 -72.56 25.93 -72.56 25.25 C-73.55 24.92 -74.54 24.59 -75.56 24.25 C-74.73 16.89 -72.23 12.09 -66.56 7.25 C-63.56 5.94 -63.56 5.94 -60.56 5.25 C-58.2 4.31 -55.89 3.27 -53.56 2.25 C-54.22 3.9 -54.88 5.55 -55.56 7.25 C-54.88 6.83 -54.19 6.41 -53.48 5.97 C-52.58 5.42 -51.68 4.88 -50.75 4.31 C-49.86 3.77 -48.96 3.22 -48.04 2.66 C-44.69 0.76 -42.17 0.13 -38.38 0.19 C-36.49 0.22 -36.49 0.22 -34.56 0.25 C-35.88 1.9 -37.2 3.55 -38.56 5.25 C-37.85 4.84 -37.14 4.43 -36.4 4.01 C-35.44 3.47 -34.49 2.93 -33.5 2.38 C-32.56 1.84 -31.62 1.31 -30.65 0.76 C-21.32 -3.8 -9.21 -5.61 0 0 Z " fill="#5C3934" transform="translate(480.5625,273.75)"/>
<path d="M0 0 C4.45 1.05 8.69 2.47 13 4 C14.33 4.35 15.66 4.7 17 5 C16.5 4.01 16.5 4.01 16 3 C22.28 2.47 26.44 4.19 32 7 C33.12 7.56 33.12 7.56 34.27 8.13 C34.84 8.42 35.41 8.71 36 9 C35.5 7.02 35.5 7.02 35 5 C41.54 8.36 45.12 13.09 47.44 19.9 C48.33 23.25 48.69 26.55 49 30 C43.86 29.58 39.21 28.54 34.25 27.12 C11.38 20.75 -14.04 18.45 -36 29 C-39.13 30.85 -42.1 32.82 -45 35 C-45.54 29.61 -45.23 25.55 -41.79 21.21 C-38.64 18.28 -35.42 15.6 -32 13 C-31.34 12.5 -30.69 12 -30.01 11.48 C-13.36 -1.15 -13.36 -1.15 0 0 Z " fill="#5A3934" transform="translate(283,271)"/>
<path d="M0 0 C6.46 0.03 11.94 1.49 17.88 3.88 C18.52 4.13 19.16 4.39 19.82 4.65 C23.21 6.07 26.33 7.45 29 10 C30.39 17.67 27 23.59 23 30 C15.1 40.9 4.39 46.81 -8.65 49.56 C-25.5 51.78 -39.93 50.04 -54 40 C-54 39.34 -54 38.68 -54 38 C-55.32 37.34 -56.64 36.68 -58 36 C-56.79 25.55 -49.54 17.83 -42 11 C-41.34 11.33 -40.68 11.66 -40 12 C-40.33 12.66 -40.66 13.32 -41 14 C-41.81 21.62 -40.97 28.36 -37 35 C-32.7 39.94 -27.2 43.59 -20.63 44.43 C-11.59 44.44 -6.22 43.45 0.75 37.75 C6.53 30.69 7.75 24.94 7.54 15.71 C6.73 10.16 4.34 6.4 1 2 C0.5 1.01 0.5 1.01 0 0 Z " fill="#F8F8F5" transform="translate(470,330)"/>
<path d="M0 0 C1.21 0.01 1.21 0.01 2.45 0.03 C3.37 0.04 3.37 0.04 4.31 0.06 C3.31 2.08 2.3 4.08 1.24 6.07 C-2.07 12.72 -2.98 18.52 -0.92 25.74 C2.09 33.79 5.65 38.23 13.31 42.06 C20.28 44.25 28.02 44.07 34.69 41.12 C40.87 37.63 43.65 32.45 46.69 26.25 C47.68 21.21 47.46 16.18 47.31 11.06 C54.37 13.85 59.44 22.06 63 28.5 C64.31 32.06 64.31 32.06 63.58 34.22 C62.31 36.06 62.31 36.06 59.31 37.06 C59.31 37.72 59.31 38.38 59.31 39.06 C58.65 39.06 57.99 39.06 57.31 39.06 C57.31 39.72 57.31 40.38 57.31 41.06 C54.67 42.49 52.03 43.8 49.31 45.06 C48.51 45.44 47.71 45.83 46.88 46.22 C33.98 51.45 17.37 50.84 4.29 46.39 C-0.58 44.22 -4.63 41.51 -8.69 38.06 C-9.41 37.47 -10.13 36.87 -10.87 36.25 C-17.66 30.09 -22.5 22.02 -23.56 12.81 C-23.6 11.57 -23.65 10.34 -23.69 9.06 C-21.08 7.75 -18.48 6.44 -15.88 5.12 C-15.14 4.75 -14.4 4.38 -13.64 3.99 C-12.93 3.64 -12.21 3.28 -11.48 2.91 C-10.83 2.58 -10.17 2.25 -9.5 1.91 C-6.19 0.36 -3.6 -0.05 0 0 Z " fill="#F9F9F7" transform="translate(268.6875,330.9375)"/>
<path d="M0 0 C6.22 4.5 9.53 11.65 10.97 19.06 C11.08 19.93 11.2 20.8 11.31 21.69 C8.67 21.69 6.03 21.69 3.31 21.69 C2.98 22.35 2.65 23.01 2.31 23.69 C1.65 23.69 0.99 23.69 0.31 23.69 C0.77 33.33 1.59 40.31 8.31 47.69 C9.3 48.18 9.3 48.18 10.31 48.69 C10.31 49.35 10.31 50.01 10.31 50.69 C-0.41 51.23 -7.68 49.66 -16.25 43.09 C-16.73 42.63 -17.2 42.16 -17.69 41.69 C-17.69 41.03 -17.69 40.37 -17.69 39.69 C-18.35 39.69 -19.01 39.69 -19.69 39.69 C-20.34 38.48 -20.99 37.27 -21.62 36.06 C-21.98 35.39 -22.34 34.72 -22.71 34.02 C-26.03 26.07 -26.6 12.95 -23.64 4.8 C-21.68 1.69 -19.4 -1.74 -15.82 -2.94 C-10.11 -3.93 -5.01 -2.88 0 0 Z " fill="#ED8248" transform="translate(189.6875,368.3125)"/>
<path d="M0 0 C5.16 4.47 7.91 10.01 8.59 16.74 C8.89 26.26 7.35 35.54 1.56 43.37 C-1.23 46.27 -3.94 48.47 -7.69 50 C-9.01 50 -10.33 50 -11.69 50 C-11.69 50.66 -11.69 51.32 -11.69 52 C-17.07 52.92 -22.23 53.11 -27.69 53 C-27.3 52.59 -26.91 52.18 -26.52 51.75 C-19.76 44.26 -17.22 38.75 -17.35 28.54 C-17.45 25.83 -17.45 25.83 -19.69 24 C-22.34 23.43 -24.98 23.26 -27.69 23 C-27.3 16.81 -25.25 13.01 -21.69 8 C-21.07 7.09 -20.45 6.19 -19.81 5.25 C-14.13 -0.77 -7.94 -2.95 0 0 Z " fill="#ED8249" transform="translate(571.6875,366)"/>
<path d="M0 0 C2.73 1.07 4.61 2.26 7 4 C5.79 4.96 5.79 4.96 4.56 5.94 C2.72 7.41 2.72 7.41 1 9 C0.5 13.61 0.5 13.61 2.22 17.71 C4.52 19.38 5.88 19.31 8.69 19.19 C9.5 19.16 10.3 19.13 11.14 19.11 C12.06 19.05 12.06 19.05 13 19 C11.42 25.56 9.43 30.15 3.88 34.38 C-1.27 37 -6.83 37.02 -12.28 35.27 C-17.72 32.79 -20.84 29.67 -23.25 24.12 C-24.71 18.03 -24.44 13.39 -21.38 7.93 C-15.87 0.2 -9.21 -1.54 0 0 Z " fill="#241F1F" transform="translate(297,332)"/>
<path d="M0 0 C4.36 2.54 6.97 5.76 8.69 10.5 C9.71 16.7 9.18 22.35 6.03 27.84 C2.79 31.84 -2.24 34.08 -7.29 34.77 C-13.52 35.06 -17.66 33.71 -22.31 29.5 C-24.39 27.01 -26.2 24.56 -27.31 21.5 C-26.93 19.25 -26.93 19.25 -26.31 17.5 C-24.43 17.59 -24.43 17.59 -22.5 17.69 C-19.25 17.67 -19.25 17.67 -16.31 16.38 C-14.83 13.59 -14.93 11.61 -15.31 8.5 C-17.09 5.36 -17.84 4.66 -21.31 3.5 C-21.31 2.84 -21.31 2.18 -21.31 1.5 C-14.37 -2.12 -7.4 -3.14 0 0 Z " fill="#231E20" transform="translate(462.3125,333.5)"/>
<path d="M0 0 C0.85 -0.02 1.69 -0.05 2.57 -0.07 C8.78 -0.1 13.77 1.14 19.12 4.38 C21.25 6.81 21.25 6.81 22.12 9.38 C21.81 12.19 21.81 12.19 21.12 14.38 C20.47 14.38 19.81 14.38 19.12 14.38 C18.8 15.37 18.47 16.36 18.12 17.38 C9.03 21.82 -4.43 22.05 -14.06 19.12 C-17.5 17.72 -20.3 16.11 -22.88 13.38 C-23.69 10.62 -23.69 10.62 -23.88 8.38 C-22.87 7.4 -21.84 6.45 -20.81 5.5 C-19.96 4.7 -19.96 4.7 -19.09 3.88 C-13.33 -0.04 -6.72 0.01 0 0 Z " fill="#F6B586" transform="translate(372.875,405.625)"/>
<path d="M0 0 C0.2 12.4 -6.28 23.14 -14.64 31.87 C-18.15 35.04 -21.92 37.62 -26 40 C-26.66 39.67 -27.32 39.34 -28 39 C-27.43 38.55 -26.86 38.1 -26.28 37.64 C-18.91 31.5 -13.08 24.2 -10 15 C-9.76 12.79 -9.76 12.79 -9.88 10.69 C-9.92 9.47 -9.96 8.25 -10 7 C-26.29 -2.1 -42.63 -5.69 -60.81 -1.44 C-75.63 3.02 -86.12 12.93 -94 26 C-94.33 25.34 -94.66 24.68 -95 24 C-89.27 9.65 -77.89 -0.28 -64.39 -7.02 C-45.15 -14.9 -18.47 -6.92 0 0 Z " fill="#1E1A1B" transform="translate(508,333)"/>
<path d="M0 0 C7.66 6.55 14.48 13.89 16.46 24.03 C13.8 21.52 11.69 18.73 9.46 15.84 C0.83 5.29 -10.83 -2.25 -24.54 -3.97 C-40.7 -5.07 -54.44 -1.98 -68.54 6.03 C-68.18 16.55 -64.08 24.83 -56.66 32.28 C-55.3 33.54 -53.93 34.8 -52.54 36.03 C-53.53 36.52 -53.53 36.52 -54.54 37.03 C-65.69 30.91 -72.34 20.89 -76.54 9.03 C-77.38 5.71 -78.04 2.41 -78.54 -0.97 C-53.28 -9.08 -23.12 -17.99 0 0 Z " fill="#201C1D" transform="translate(314.53515625,333.97265625)"/>
<path d="M0 0 C4.03 1.61 6.76 4.46 9.75 7.5 C10.26 8 10.76 8.5 11.29 9.01 C15 12.75 15 12.75 15 15 C15.66 15 16.32 15 17 15 C18.77 17.11 20.39 19.21 22 21.44 C22.49 22.11 22.97 22.78 23.47 23.47 C39.87 46.45 51.86 73.04 60 100 C60.2 100.65 60.4 101.3 60.6 101.96 C62.81 109.25 64.64 116.51 66 124 C63.03 124 60.06 124 57 124 C56.7 122.61 56.39 121.22 56.08 119.79 C50.03 92.34 41.9 66.02 29 41 C28.69 40.4 28.38 39.79 28.06 39.17 C20.56 24.57 10.71 12.36 0 0 Z " fill="#F8750A" transform="translate(73,721)"/>
<path d="M0 0 C1.32 0 2.64 0 4 0 C3.19 1.94 3.19 1.94 2 4 C1.01 4.33 0.02 4.66 -1 5 C-1.71 6.31 -2.37 7.65 -3 9 C-3.98 10.24 -5.01 11.45 -6.06 12.62 C-7.66 14.42 -8.92 15.85 -10 18 C-10.66 18 -11.32 18 -12 18 C-12.24 18.51 -12.48 19.03 -12.73 19.56 C-14.75 23.45 -17.09 27.16 -19.37 30.9 C-25.27 40.64 -30.29 50.55 -34.69 61.06 C-35.16 62.17 -35.63 63.28 -36.12 64.42 C-38.54 70.16 -40.69 75.86 -42.39 81.85 C-43.17 84.61 -44.11 87.3 -45.06 90 C-46.5 94.29 -47.62 98.48 -48.43 102.93 C-49.25 107.35 -50.19 111.73 -51.12 116.12 C-51.48 117.82 -51.84 119.51 -52.2 121.2 C-52.46 122.45 -52.73 123.71 -53 125 C-55.97 125 -58.94 125 -62 125 C-57.23 99.09 -48.44 73.12 -35.26 50.22 C-34.38 48.67 -33.53 47.09 -32.71 45.5 C-26.81 34.14 -18.99 23.96 -11 14 C-10.52 13.38 -10.03 12.76 -9.53 12.12 C-8.4 10.71 -7.21 9.35 -6 8 C-5.34 8 -4.68 8 -4 8 C-3.34 6.02 -2.68 4.04 -2 2 C-1.34 2 -0.68 2 0 2 C0 1.34 0 0.68 0 0 Z " fill="#F8750A" transform="translate(664,720)"/>
<path d="M0 0 C0.89 -0 1.77 -0 2.69 -0 C9.17 0.1 14.58 1.03 20.25 4.38 C20.25 5.03 20.25 5.7 20.25 6.38 C21.24 6.38 22.23 6.38 23.25 6.38 C24.38 11.77 24.32 16.89 24.25 22.38 C20.95 22.38 17.65 22.38 14.25 22.38 C14.25 21.72 14.25 21.05 14.25 20.38 C11.61 20.38 8.97 20.38 6.25 20.38 C6.25 19.72 6.25 19.05 6.25 18.38 C4.93 18.38 3.61 18.38 2.25 18.38 C2.25 17.72 2.25 17.05 2.25 16.38 C0.93 16.38 -0.39 16.38 -1.75 16.38 C-1.75 15.72 -1.75 15.05 -1.75 14.38 C-3.07 14.38 -4.39 14.38 -5.75 14.38 C-5.75 13.72 -5.75 13.05 -5.75 12.38 C-6.41 12.38 -7.07 12.38 -7.75 12.38 C-7.75 11.72 -7.75 11.05 -7.75 10.38 C-9.07 10.38 -10.39 10.38 -11.75 10.38 C-11.75 9.72 -11.75 9.05 -11.75 8.38 C-12.41 8.38 -13.07 8.38 -13.75 8.38 C-13.75 7.72 -13.75 7.05 -13.75 6.38 C-14.41 6.38 -15.07 6.38 -15.75 6.38 C-15.75 5.05 -15.75 3.74 -15.75 2.38 C-10.44 0.21 -5.65 -0.01 0 0 Z " fill="#FDAA30" transform="translate(475.75,639.625)"/>
<path d="M0 0 C0 1.98 0 3.96 0 6 C-1.32 6 -2.64 6 -4 6 C-4 6.66 -4 7.32 -4 8 C-4.66 8 -5.32 8 -6 8 C-6 8.66 -6 9.32 -6 10 C-7.32 10 -8.64 10 -10 10 C-10 10.66 -10 11.32 -10 12 C-11.32 12 -12.64 12 -14 12 C-14 12.66 -14 13.32 -14 14 C-15.32 14 -16.64 14 -18 14 C-18 14.66 -18 15.32 -18 16 C-19.32 16 -20.64 16 -22 16 C-22 16.66 -22 17.32 -22 18 C-25.96 18 -29.92 18 -34 18 C-34 18.66 -34 19.32 -34 20 C-35.65 20 -37.3 20 -39 20 C-39.03 17.37 -39.05 14.75 -39.06 12.12 C-39.07 11.38 -39.08 10.63 -39.09 9.86 C-39.11 4.23 -39.11 4.23 -38 2 C-26.07 -2.91 -12.34 -4.11 0 0 Z " fill="#FBAC32" transform="translate(280,642)"/>
<path d="M0 0 C3.38 0.05 3.98 0.2 6.69 2.5 C8.44 5.87 8.82 7.64 8.19 11.38 C6.69 13.75 6.69 13.75 4.19 15.38 C1.43 15.7 -1.02 15.56 -3.81 15.38 C-3.25 20.14 -1.23 23.96 2.19 27.38 C2.19 29.02 2.19 30.68 2.19 32.38 C8.13 32.38 14.07 32.38 20.19 32.38 C19.2 32.87 19.2 32.87 18.19 33.38 C18.19 34.03 18.19 34.69 18.19 35.38 C18.79 35.17 19.38 34.96 20 34.75 C22.19 34.38 22.19 34.38 25.19 36.38 C18.53 39.49 10.48 39.76 3.48 37.5 C-3.58 33.85 -8.82 28.22 -11.35 20.63 C-12.32 15.9 -13.02 9.79 -10.81 5.38 C-9.49 5.38 -8.17 5.38 -6.81 5.38 C-6.5 4.74 -6.19 4.1 -5.88 3.44 C-4.12 0.02 -4.26 0.42 0 0 Z " fill="#A67D54" transform="translate(439.8125,336.625)"/>
<path d="M0 0 C0.98 0.2 1.97 0.41 2.98 0.62 C3.73 0.78 4.48 0.95 5.25 1.12 C4.92 3.76 4.59 6.4 4.25 9.12 C15.14 9.12 26.03 9.12 37.25 9.12 C33.37 11.71 31.58 12.26 26.98 12.37 C25.93 12.4 24.87 12.44 23.79 12.47 C21.57 12.53 19.34 12.59 17.12 12.64 C16.07 12.68 15.01 12.71 13.92 12.75 C12.95 12.77 11.98 12.8 10.99 12.82 C8.23 13 8.23 13 5.76 14.13 C2.81 15.3 0.53 15.38 -2.64 15.39 C-3.77 15.39 -4.89 15.4 -6.04 15.4 C-7.2 15.39 -8.37 15.38 -9.56 15.38 C-10.71 15.38 -11.86 15.39 -13.05 15.4 C-22.49 15.38 -22.49 15.38 -26.96 14.14 C-31.55 12.91 -35.83 12.76 -40.56 12.62 C-60.01 11.87 -60.01 11.87 -63.75 8.12 C-62.91 8.19 -62.07 8.25 -61.21 8.31 C-43.03 9.6 -24.99 10.45 -6.75 10.12 C-7.25 7.65 -7.25 7.65 -7.75 5.12 C-10.06 5.45 -12.37 5.79 -14.75 6.12 C-14.75 5.13 -14.75 4.14 -14.75 3.12 C-13.1 3.12 -11.45 3.12 -9.75 3.12 C-9.75 2.46 -9.75 1.81 -9.75 1.12 C-6.21 -1.15 -4.04 -0.87 0 0 Z " fill="#D57E42" transform="translate(383.75,470.875)"/>
<path d="M0 0 C0.66 0.99 1.32 1.98 2 3 C2.99 2.67 3.98 2.34 5 2 C5.66 2.66 6.32 3.32 7 4 C6.67 4.99 6.34 5.98 6 7 C5.37 13.29 7.22 17.53 10 23 C10.33 23.66 10.66 24.32 11 25 C10.67 25.66 10.34 26.32 10 27 C11.65 27.33 13.3 27.66 15 28 C15 28.66 15 29.32 15 30 C15.99 30.33 16.98 30.66 18 31 C18 31.66 18 32.32 18 33 C20.64 33 23.28 33 26 33 C26 32.34 26 31.68 26 31 C27.98 31 29.96 31 32 31 C32 30.34 32 29.68 32 29 C32.66 29 33.32 29 34 29 C34.33 28.34 34.66 27.68 35 27 C36.98 27 38.96 27 41 27 C41 27.99 41 28.98 41 30 C33.53 35.74 27.22 36.77 18 36 C11.53 34.62 6.23 31.37 2.55 25.82 C-1.5 18.77 -2.56 13.12 -2 5 C-1 1.88 -1 1.88 0 0 Z " fill="#A97E56" transform="translate(268,339)"/>
<path d="M0 0 C0.66 0 1.32 0 2 0 C2 0.99 2 1.98 2 3 C2.66 3 3.32 3 4 3 C4 2.34 4 1.68 4 1 C4.66 1 5.32 1 6 1 C5.96 1.89 5.92 2.77 5.88 3.69 C6.04 8.08 6.88 10.88 10 14 C9.34 14 8.68 14 8 14 C8 16.64 8 19.28 8 22 C9.98 22 11.96 22 14 22 C14 21.34 14 20.68 14 20 C14.66 20 15.32 20 16 20 C16.15 20.94 16.15 20.94 16.3 21.9 C16.45 22.72 16.6 23.53 16.75 24.38 C16.89 25.19 17.03 26 17.17 26.84 C17.82 29.18 17.82 29.18 20.08 30.29 C20.71 30.52 21.35 30.76 22 31 C22 32.32 22 33.64 22 35 C17.04 35.38 14.49 34.51 10.38 31.75 C9.45 31.15 8.53 30.54 7.59 29.92 C3.04 26.55 -0.08 23.39 -2 18 C-2.56 11.75 -2.59 5.82 0 0 Z " fill="#EE9B66" transform="translate(344,410)"/>
<path d="M0 0 C6.3 0.95 11.51 4.13 15.69 8.95 C16.86 10.59 17.94 12.29 19 14 C19 12.68 19 11.36 19 10 C19.66 10 20.32 10 21 10 C21 10.66 21 11.32 21 12 C22.32 12 23.64 12 25 12 C25 12.66 25 13.32 25 14 C26.32 14 27.64 14 29 14 C29.19 16.88 29.19 16.88 29 20 C28.01 20.66 27.02 21.32 26 22 C25.67 22.33 25.34 22.66 25 23 C22.67 23.04 20.33 23.04 18 23 C17.67 24.32 17.34 25.64 17 27 C13.7 26.67 10.4 26.34 7 26 C7 25.67 7 25.34 7 25 C8.98 25 10.96 25 13 25 C12.43 22.79 11.84 20.58 11.25 18.38 C10.76 16.53 10.76 16.53 10.27 14.65 C8.14 8.53 4.66 4.4 0 0 Z " fill="#F3B686" transform="translate(319,276)"/>
<path d="M0 0 C8.81 -0.4 15.32 0.54 23.36 4.02 C29.82 6.76 36.04 8.09 43 9 C39.3 11.47 37.41 11.24 33 11.23 C32.32 11.23 31.64 11.23 30.94 11.23 C29.51 11.23 28.07 11.22 26.64 11.21 C24.44 11.19 22.25 11.19 20.05 11.19 C9.3 11.15 9.3 11.15 7 10 C7 7.69 7 5.38 7 3 C4.69 2.34 2.38 1.68 0 1 C0 0.67 0 0.34 0 0 Z " fill="#ED8E51" transform="translate(381,470)"/>
<path d="M0 0 C1.65 0 3.3 0 5 0 C5 1.32 5 2.64 5 4 C7.64 4 10.28 4 13 4 C13 5.32 13 6.64 13 8 C14.65 8.33 16.3 8.66 18 9 C14.55 10.73 10.83 9.23 7.14 8.57 C-3.45 6.95 -14.21 6.84 -24.9 6.87 C-26.93 6.87 -28.96 6.87 -30.99 6.86 C-40.04 6.86 -48.98 7.29 -58 8 C-55 6 -55 6 -53 6 C-53 5.34 -53 4.68 -53 4 C-35.84 4 -18.68 4 -1 4 C-0.67 2.68 -0.34 1.36 0 0 Z " fill="#F4F5F0" transform="translate(419,16)"/>
<path d="M0 0 C1.91 0.48 1.91 0.48 4.41 2.61 C6.16 5.97 6.54 7.74 5.91 11.48 C4.41 13.86 4.41 13.86 1.91 15.48 C-2.16 16.3 -5.09 16.14 -8.59 13.86 C-10.56 10.74 -10.69 9.11 -10.09 5.48 C-7.6 0.71 -5.15 -0.35 0 0 Z " fill="#F3F2F0" transform="translate(442.09375,336.515625)"/>
<path d="M0 0 C2.44 1.56 2.44 1.56 4 4 C4.51 9.97 4.51 9.97 3 13 C2.34 13 1.68 13 1 13 C1 13.66 1 14.32 1 15 C-6.23 15.48 -6.23 15.48 -9.5 13.44 C-11.58 10.05 -11.56 7.91 -11 4 C-8.11 -0.51 -5.12 -0.73 0 0 Z " fill="#F6F6F5" transform="translate(308,337)"/>
<path d="M0 0 C0 3 0 3 -1.36 4.61 C-12.95 14.71 -27.48 20.46 -42 25 C-41.8 22.64 -41.8 22.64 -41 20 C-38.98 18.73 -38.98 18.73 -36.19 17.75 C-35.11 17.34 -34.04 16.93 -32.93 16.51 C-32.01 16.16 -32.01 16.16 -31.07 15.81 C-26.93 14.19 -22.87 12.37 -18.81 10.56 C-17.98 10.2 -17.15 9.84 -16.3 9.47 C-10.44 6.87 -5.23 3.71 0 0 Z " fill="#E1AD83" transform="translate(280,230)"/>
<path d="M0 0 C2.38 1.15 4.65 2.38 6.93 3.73 C16 8.82 22.59 9.92 33 9 C33 8.67 33 8.34 33 8 C34.65 8 36.3 8 38 8 C38 8.99 38 9.98 38 11 C32.72 11 27.44 11 22 11 C22 12.32 22 13.64 22 15 C19.69 15.33 17.38 15.66 15 16 C15.47 16.62 15.95 17.24 16.44 17.88 C18 20 18 20 19 22 C19.33 22 19.66 22 20 22 C20 23.98 20 25.96 20 28 C19.34 28 18.68 28 18 28 C17.52 27.03 17.03 26.07 16.53 25.07 C12.81 17.79 9 11.21 3.66 4.95 C2 3 2 3 0 0 Z " fill="#F3F3EE" transform="translate(574,149)"/>
<path d="M0 0 C0.52 0.25 1.04 0.51 1.58 0.77 C7.57 3.57 13.59 5.42 20 7 C19.67 7.66 19.34 8.32 19 9 C16.72 9.4 14.43 9.69 12.12 9.94 C5.54 10.69 -0.66 12.02 -7 14 C-7 13.01 -7 12.02 -7 11 C-6.34 11 -5.68 11 -5 11 C-5 10.34 -5 9.68 -5 9 C-5.66 8.67 -6.32 8.34 -7 8 C-5.26 6.26 -2.81 6.63 -0.44 6.44 C0.57 6.35 1.59 6.27 2.63 6.18 C3.41 6.12 4.19 6.06 5 6 C3.05 4.05 1.47 3.15 -1 2 C-0.67 1.34 -0.34 0.68 0 0 Z " fill="#F4F2F0" transform="translate(201,95)"/>
<path d="M0 0 C-1 3 -1 3 -2.38 4.25 C-6.79 9 -7.81 15.84 -9 22 C-9.99 22 -10.98 22 -12 22 C-12 21.34 -12 20.68 -12 20 C-12.99 19.67 -13.98 19.34 -15 19 C-14.16 11.63 -11.59 6.91 -6 2 C-3.8 0.72 -2.55 0 0 0 Z " fill="#BE8E76" transform="translate(420,279)"/>
<path d="M0 0 C-3.88 2.58 -5.67 3.13 -10.27 3.25 C-11.32 3.28 -12.38 3.31 -13.46 3.35 C-15.68 3.41 -17.91 3.46 -20.13 3.52 C-21.18 3.55 -22.24 3.59 -23.33 3.62 C-24.78 3.66 -24.78 3.66 -26.26 3.7 C-29.02 3.88 -29.02 3.88 -31.47 5.01 C-34.48 6.19 -36.84 6.26 -40.07 6.27 C-41.21 6.27 -42.36 6.27 -43.54 6.27 C-45.31 6.26 -45.31 6.26 -47.12 6.25 C-48.91 6.26 -48.91 6.26 -50.74 6.27 C-51.88 6.27 -53.02 6.27 -54.2 6.27 C-55.24 6.26 -56.28 6.26 -57.35 6.26 C-60 6 -60 6 -63 4 C-61.08 4.05 -61.08 4.05 -59.12 4.11 C-47.59 4.38 -47.59 4.38 -36.25 2.56 C-24.56 -0.41 -12.01 -0.04 0 0 Z " fill="#6A300C" transform="translate(421,480)"/>
<path d="M0 0 C0.33 0 0.66 0 1 0 C1.26 8.25 0.65 15.92 -1 24 C-1.22 25.17 -1.22 25.17 -1.44 26.36 C-2.38 30.86 -3.91 33.62 -7 37 C-7.66 37.99 -8.32 38.98 -9 40 C-8.23 33.39 -6.64 27.02 -5.06 20.56 C-4.8 19.47 -4.53 18.37 -4.26 17.25 C-2.86 11.49 -1.44 5.74 0 0 Z " fill="#D6D0C9" transform="translate(565,291)"/>
<path d="M0 0 C2.64 0 5.28 0 8 0 C8 0.66 8 1.32 8 2 C10.64 2 13.28 2 16 2 C16 2.66 16 3.32 16 4 C22.6 4 29.2 4 36 4 C36 3.34 36 2.68 36 2 C38.64 2 41.28 2 44 2 C38.79 7.21 29.51 6.37 22.62 6.38 C21.65 6.4 20.67 6.42 19.66 6.45 C12.83 6.48 7.02 5.39 1 2 C0.67 1.34 0.34 0.68 0 0 Z " fill="#F2EFE9" transform="translate(196,56)"/>
<path d="M0 0 C5.89 1.26 8.66 4.24 12 9 C14.01 12.49 14.18 14.96 14 19 C13.34 19 12.68 19 12 19 C11.67 19.99 11.34 20.98 11 22 C10.01 22 9.02 22 8 22 C7.85 20.95 7.85 20.95 7.7 19.88 C6.49 12.18 4.3 6.45 0 0 Z " fill="#BB8A73" transform="translate(325,279)"/>
<path d="M0 0 C0.33 0 0.66 0 1 0 C0.67 6.93 0.34 13.86 0 21 C-1.65 21 -3.3 21 -5 21 C-5.33 24.3 -5.66 27.6 -6 31 C-6.33 31 -6.66 31 -7 31 C-7.33 27.37 -7.66 23.74 -8 20 C-8.66 22.31 -9.32 24.62 -10 27 C-10.33 27 -10.66 27 -11 27 C-11.26 20.13 -10.26 13.74 -9 7 C-8.34 7 -7.68 7 -7 7 C-6.72 7.78 -6.45 8.56 -6.16 9.37 C-5.62 10.89 -5.62 10.89 -5.06 12.44 C-4.52 13.95 -4.52 13.95 -3.97 15.5 C-3.23 17.9 -3.23 17.9 -2 19 C-1.34 12.73 -0.68 6.46 0 0 Z " fill="#DAA27D" transform="translate(235,263)"/>
<path d="M0 0 C5.95 0.42 10.77 2.77 15 7 C15 8.32 15 9.64 15 11 C9.42 11.86 6.32 9.67 1.86 6.7 C-0.21 4.81 -0.74 3.77 -1 1 C-0.67 0.67 -0.34 0.34 0 0 Z " fill="#7D4D2C" transform="translate(351,434)"/>
<path d="M0 0 C0.06 2.69 0.06 2.69 -1 6 C-5.36 9.48 -9.39 11.34 -15 11 C-14.94 8.81 -14.94 8.81 -14 6 C-9.75 2.05 -5.89 0 0 0 Z " fill="#794D25" transform="translate(394,434)"/>
<path d="M0 0 C0.33 0 0.66 0 1 0 C1 0.74 1 1.47 0.99 2.23 C0.97 9.26 0.96 16.29 0.95 23.32 C0.94 26.93 0.94 30.54 0.92 34.15 C0.85 57.09 0.85 57.09 2 80 C1.01 80 0.02 80 -1 80 C-1.02 71.49 -1.04 62.98 -1.05 54.47 C-1.06 50.51 -1.06 46.56 -1.08 42.61 C-1.09 38.78 -1.09 34.96 -1.09 31.13 C-1.1 29.68 -1.1 28.23 -1.11 26.78 C-1.14 17.81 -0.84 8.94 0 0 Z " fill="#CB9675" transform="translate(221,310)"/>
<path d="M0 0 C0.33 0 0.66 0 1 0 C1.87 3.43 2.72 6.87 3.56 10.31 C3.81 11.29 4.06 12.27 4.31 13.27 C4.54 14.21 4.77 15.15 5 16.11 C5.22 16.98 5.43 17.84 5.65 18.73 C6 21 6 21 5 24 C2.69 23.67 0.38 23.34 -2 23 C-2 20.36 -2 17.72 -2 15 C-1.34 15 -0.68 15 0 15 C0 10.05 0 5.1 0 0 Z " fill="#FEFEFC" transform="translate(154,273)"/>
<path d="M0 0 C3.27 0.3 4.66 0.64 6.95 3.07 C11.99 10.65 14.31 15.89 14 25 C14.99 25 15.98 25 17 25 C17 23.02 17 21.04 17 19 C17.33 19.99 17.66 20.98 18 22 C18.66 22 19.32 22 20 22 C20.33 21.34 20.66 20.68 21 20 C21.33 20.99 21.66 21.98 22 23 C20.68 23 19.36 23 18 23 C17.67 24.32 17.34 25.64 17 27 C13.7 26.67 10.4 26.34 7 26 C7 25.67 7 25.34 7 25 C8.98 25 10.96 25 13 25 C12.43 22.79 11.84 20.58 11.25 18.38 C10.76 16.53 10.76 16.53 10.27 14.65 C8.14 8.53 4.66 4.4 0 0 Z " fill="#CA9D7F" transform="translate(319,276)"/>
<path d="M0 0 C0.89 -0 1.77 -0.01 2.69 -0.01 C4.08 0 4.08 0 5.5 0.02 C6.43 0.01 7.36 0 8.31 -0.01 C9.64 -0 9.64 -0 11 0 C11.81 0 12.63 0 13.47 0.01 C15.5 0.27 15.5 0.27 17.5 2.27 C14.86 2.27 12.22 2.27 9.5 2.27 C9.5 2.93 9.5 3.59 9.5 4.27 C6.2 4.27 2.9 4.27 -0.5 4.27 C-0.5 3.61 -0.5 2.95 -0.5 2.27 C-2.48 2.27 -4.46 2.27 -6.5 2.27 C-4.05 -0.18 -3.36 0.01 0 0 Z " fill="#F4B856" transform="translate(470.5,639.734375)"/>
<path d="M0 0 C0.33 0 0.66 0 1 0 C1.33 3.63 1.66 7.26 2 11 C2.66 9.35 3.32 7.7 4 6 C6 8 6 8 6 11 C6.66 11 7.32 11 8 11 C8 11.66 8 12.32 8 13 C7.34 13 6.68 13 6 13 C6 14.32 6 15.64 6 17 C5.34 17 4.68 17 4 17 C4 16.34 4 15.68 4 15 C3.34 15 2.68 15 2 15 C2 16.32 2 17.64 2 19 C1.34 19 0.68 19 0 19 C-1.36 15.1 -0.89 11.29 -0.56 7.25 C-0.48 6.2 -0.48 6.2 -0.4 5.14 C-0.28 3.42 -0.14 1.71 0 0 Z " fill="#E7E0DB" transform="translate(588,239)"/>
<path d="M0 0 C20.16 -0.45 20.16 -0.45 30 4 C29.01 4.66 28.02 5.32 27 6 C26.2 5.51 26.2 5.51 25.38 5.01 C22.42 3.75 20.14 3.77 16.94 3.81 C15.89 3.82 14.85 3.83 13.78 3.83 C10.91 3.89 10.91 3.89 8 5 C8 4.34 8 3.68 8 3 C8.66 3 9.32 3 10 3 C10 2.34 10 1.68 10 1 C6.7 1 3.4 1 0 1 C0 0.67 0 0.34 0 0 Z " fill="#81654B" transform="translate(274,329)"/>
<path d="M0 0 C0.14 0.6 0.29 1.2 0.44 1.81 C0.89 3.56 1.43 5.29 2 7 C1.01 7 0.02 7 -1 7 C-1.33 9.64 -1.66 12.28 -2 15 C-2.66 15 -3.32 15 -4 15 C-3.94 16.08 -3.94 16.08 -3.88 17.19 C-4.01 20.21 -4.75 22.27 -6 25 C-6.66 25 -7.32 25 -8 25 C-8.33 26.32 -8.66 27.64 -9 29 C-10.18 25.47 -9.8 24.86 -8.42 21.54 C-8.06 20.68 -7.71 19.81 -7.34 18.92 C-6.96 18.02 -6.58 17.12 -6.19 16.19 C-5.45 14.41 -4.71 12.63 -3.98 10.86 C-3.46 9.6 -3.46 9.6 -2.93 8.32 C-1.83 5.58 -0.88 2.82 0 0 Z " fill="#E3DDD8" transform="translate(578,283)"/>
<path d="M0 0 C0 2.64 0 5.28 0 8 C-0.66 8 -1.32 8 -2 8 C-2 9.32 -2 10.64 -2 12 C-3.32 12 -4.64 12 -6 12 C-5.12 4.38 -5.12 4.38 -4 1 C-1 0 -1 0 0 0 Z " fill="#F9FEFE" transform="translate(558,334)"/>
<path d="M0 0 C0.33 0 0.66 0 1 0 C0.67 6.93 0.34 13.86 0 21 C-1.65 21 -3.3 21 -5 21 C-7 19 -7 19 -7.2 16.84 C-7.17 16.02 -7.15 15.21 -7.12 14.38 C-7.11 13.56 -7.09 12.74 -7.07 11.9 C-7.05 11.27 -7.02 10.65 -7 10 C-5 13 -5 13 -2 19 C-1.34 12.73 -0.68 6.46 0 0 Z " fill="#B88B6C" transform="translate(235,263)"/>
<path d="M0 0 C5.28 0 10.56 0 16 0 C16 0.33 16 0.66 16 1 C17.28 1.08 18.56 1.17 19.88 1.25 C22.05 1.39 22.05 1.39 24 2 C24.66 3.32 25.32 4.64 26 6 C17.42 4.35 8.84 2.7 0 1 C0 0.67 0 0.34 0 0 Z " fill="#C69A77" transform="translate(472,324)"/>
<path d="M0 0 C0.33 0.99 0.66 1.98 1 3 C0.43 2.87 -0.15 2.73 -0.74 2.6 C-10.09 0.65 -19.49 0.37 -29 0 C-29 -0.33 -29 -0.66 -29 -1 C-9.03 -2.52 -9.03 -2.52 0 0 Z " fill="#CF9C75" transform="translate(302,324)"/>
<path d="M0 0 C0.33 0 0.66 0 1 0 C1 2.97 1 5.94 1 9 C2.65 9.33 4.3 9.66 6 10 C2.97 12.47 0.81 13.47 -3 15 C-2.01 10.05 -1.02 5.1 0 0 Z " fill="#D6D1C9" transform="translate(490,103)"/>
<path d="M0 0 C7.92 0 15.84 0 24 0 C24 0.66 24 1.32 24 2 C26.48 2.5 26.48 2.5 29 3 C26.16 4.42 24.36 3.68 21.25 3.12 C14.18 1.96 7.15 1.41 0 1 C0 0.67 0 0.34 0 0 Z " fill="#DAD1CD" transform="translate(408,22)"/>
<path d="M0 0 C0.33 0 0.66 0 1 0 C1.07 0.87 1.07 0.87 1.15 1.76 C1.6 6.44 2.3 10.57 4 15 C2.89 14.06 1.79 13.13 0.69 12.19 C0.07 11.67 -0.54 11.14 -1.18 10.61 C-1.78 10.08 -2.38 9.55 -3 9 C-3.57 8.5 -4.14 8 -4.73 7.49 C-6 6 -6 6 -6 3 C-5.34 3 -4.68 3 -4 3 C-2.38 5 -2.38 5 -1 7 C-0.67 4.69 -0.34 2.38 0 0 Z " fill="#332A29" transform="translate(190,328)"/>
<path d="M0 0 C5.12 4.15 6.72 8.6 8 15 C8 16.32 8 17.64 8 19 C7.01 19 6.02 19 5 19 C4.84 17.91 4.84 17.91 4.67 16.8 C3.77 11.34 2.75 6.88 0 2 C0 1.34 0 0.68 0 0 Z " fill="#542B1E" transform="translate(328,282)"/>
<path d="M0 0 C0.33 0.66 0.66 1.32 1 2 C0.29 3.65 -0.42 5.29 -1.16 6.91 C-2.6 10.49 -3.27 14.23 -4 18 C-4.66 18 -5.32 18 -6 18 C-5.83 10.68 -4.44 5.86 0 0 Z " fill="#502A1F" transform="translate(415,283)"/>
<path d="M0 0 C0.33 0 0.66 0 1 0 C2.67 8.33 4.33 16.67 6 25 C5.34 24.67 4.68 24.34 4 24 C4 23.34 4 22.68 4 22 C3.34 22 2.68 22 2 22 C2 19.36 2 16.72 2 14 C1.34 13.67 0.68 13.34 0 13 C0 8.71 0 4.42 0 0 Z " fill="#DFDCD5" transform="translate(178,50)"/>
<path d="M0 0 C0.33 0 0.66 0 1 0 C1 5.61 1 11.22 1 17 C0.67 16.01 0.34 15.02 0 14 C-0.66 14 -1.32 14 -2 14 C-2 10.7 -2 7.4 -2 4 C-1.34 4 -0.68 4 0 4 C0 2.68 0 1.36 0 0 Z " fill="#E7DFDC" transform="translate(112,196)"/>
<path d="M0 0 C0.33 0 0.66 0 1 0 C1.33 3.63 1.66 7.26 2 11 C1.34 11 0.68 11 0 11 C0 11.66 0 12.32 0 13 C-0.66 13 -1.32 13 -2 13 C-2 14.65 -2 16.3 -2 18 C-2.99 18.33 -3.98 18.66 -5 19 C-4.81 18.47 -4.61 17.93 -4.41 17.38 C-2.41 11.66 -1.06 5.97 0 0 Z " fill="#D7A37F" transform="translate(508,333)"/>
<path d="M0 0 C0.99 0 1.98 0 3 0 C3 0.66 3 1.32 3 2 C4.98 2 6.96 2 9 2 C9 2.66 9 3.32 9 4 C8.34 4 7.68 4 7 4 C7 4.66 7 5.32 7 6 C8.32 6 9.64 6 11 6 C11.33 6.99 11.66 7.98 12 9 C7.51 7.75 4.41 6.21 1 3 C0.67 2.01 0.34 1.02 0 0 Z " fill="#EBE7E4" transform="translate(593,148)"/>
<path d="M0 0 C2.06 3.08 2.51 4.85 3.12 8.44 C3.29 9.38 3.46 10.33 3.63 11.31 C4 14 4 14 4 18 C3.34 18 2.68 18 2 18 C0.18 11.85 -0.24 6.4 0 0 Z " fill="#C8C1BB" transform="translate(192,326)"/>
<path d="M0 0 C0.33 1.32 0.66 2.64 1 4 C1.99 4 2.98 4 4 4 C4.33 3.34 4.66 2.68 5 2 C4.34 6.39 2.81 9.98 1 14 C0.67 14 0.34 14 0 14 C0 9.38 0 4.76 0 0 Z " fill="#3C211E" transform="translate(589,238)"/>
<path d="M0 0 C4.62 0 9.24 0 14 0 C8.96 2.52 4.66 4 -1 4 C-0.67 2.68 -0.34 1.36 0 0 Z " fill="#E9E7E3" transform="translate(308,32)"/>
<path d="M0 0 C4.97 0.47 8.11 1.85 12 5 C12 5.99 12 6.98 12 8 C9.53 6.85 7.95 5.95 6 4 C5.15 3.67 4.31 3.34 3.44 3 C1 2 1 2 0 0 Z " fill="#9D7955" transform="translate(302,334)"/>
<path d="M0 0 C3.02 -0.03 6.04 -0.05 9.06 -0.06 C9.91 -0.07 10.76 -0.08 11.63 -0.09 C16.54 -0.11 21.16 0.17 26 1 C26 1.33 26 1.66 26 2 C19.85 2.88 19.85 2.88 18 3 C17.67 2.67 17.34 2.34 17 2 C14.14 1.93 11.3 1.91 8.44 1.94 C7.63 1.94 6.82 1.95 5.99 1.95 C4 1.96 2 1.98 0 2 C0 1.34 0 0.68 0 0 Z " fill="#CD9E87" transform="translate(401,171)"/>
<path d="M0 0 C3.3 0 6.6 0 10 0 C10 0.66 10 1.32 10 2 C9.01 2 8.02 2 7 2 C7.33 2.99 7.66 3.98 8 5 C6.02 5.33 4.04 5.66 2 6 C2.99 4.35 3.98 2.7 5 1 C3.35 1 1.7 1 0 1 C0 0.67 0 0.34 0 0 Z " fill="#A99274" transform="translate(268,330)"/>
<path d="M0 0 C5.6 0.42 10.72 0.92 16 3 C16 3.33 16 3.66 16 4 C7.43 3 7.43 3 4 2 C3.67 2.99 3.34 3.98 3 5 C2.01 3.35 1.02 1.7 0 0 Z " fill="#DED9D6" transform="translate(470,330)"/>
<path d="M0 0 C6.91 6.54 6.91 6.54 7.12 12.25 C7.08 13.16 7.04 14.06 7 15 C6.34 15 5.68 15 5 15 C4.81 14.34 4.61 13.67 4.41 12.99 C2.47 6.4 2.47 6.4 0 0 Z " fill="#5E3226" transform="translate(332,283)"/>
<path d="M0 0 C1.95 2.92 2.48 4.51 3.12 7.88 C3.29 8.72 3.46 9.56 3.63 10.43 C4 12.99 4.06 15.42 4 18 C3.67 17.01 3.34 16.02 3 15 C2.34 15 1.68 15 1 15 C0.67 10.05 0.34 5.1 0 0 Z " fill="#D6A07B" transform="translate(507,230)"/>
<path d="M0 0 C-0.66 1.32 -1.32 2.64 -2 4 C-2.99 4 -3.98 4 -5 4 C-5 3.01 -5 2.02 -5 1 C-5.91 1.35 -6.81 1.7 -7.75 2.06 C-10.88 2.96 -12.05 3.13 -15 2 C-9.87 -0.1 -5.44 -0.22 0 0 Z " fill="#DCDADA" transform="translate(273,331)"/>
<path d="M0 0 C0.33 0 0.66 0 1 0 C1.37 1.56 1.72 3.12 2.06 4.69 C2.26 5.56 2.46 6.43 2.66 7.32 C3.02 10.16 2.71 12.25 2 15 C1.34 14.67 0.68 14.34 0 14 C0 9.38 0 4.76 0 0 Z " fill="#DCD6D4" transform="translate(154,273)"/>
<path d="M0 0 C0.66 0.33 1.32 0.66 2 1 C-1.3 3.64 -4.6 6.28 -8 9 C-8.99 8.34 -9.98 7.68 -11 7 C-9.21 5.8 -7.42 4.62 -5.62 3.44 C-4.63 2.78 -3.63 2.11 -2.6 1.43 C-1.74 0.96 -0.88 0.49 0 0 Z " fill="#D0A27E" transform="translate(504,183)"/>
<path d="M0 0 C0.33 0 0.66 0 1 0 C1 5.61 1 11.22 1 17 C0.67 17 0.34 17 0 17 C-0.33 14.03 -0.66 11.06 -1 8 C-1.66 8 -2.32 8 -3 8 C-1.12 2.25 -1.12 2.25 0 0 Z " fill="#D3A589" transform="translate(352,182)"/>
<path d="M0 0 C0.33 0 0.66 0 1 0 C1.33 6.6 1.66 13.2 2 20 C-1.21 15.19 -1.12 11.34 -0.56 5.69 C-0.46 4.62 -0.36 3.55 -0.25 2.45 C-0.17 1.64 -0.09 0.83 0 0 Z " fill="#1A0E09" transform="translate(219,365)"/>
<path d="M0 0 C0.33 0 0.66 0 1 0 C1.29 8.57 1.29 8.57 -1 12 C-1.33 12 -1.66 12 -2 12 C-2.05 10.56 -2.09 9.13 -2.12 7.69 C-2.15 6.89 -2.17 6.09 -2.2 5.26 C-2 3 -2 3 0 0 Z " fill="#F1EFEA" transform="translate(562,309)"/>
<path d="M0 0 C0 3.37 -0.81 5.54 -2 8.69 C-2.56 10.18 -2.56 10.18 -3.12 11.7 C-3.41 12.46 -3.7 13.22 -4 14 C-4.66 14 -5.32 14 -6 14 C-5.06 8.32 -4.14 4.28 0 0 Z " fill="#5B2E26" transform="translate(411,284)"/>
<path d="M0 0 C-0.33 1.98 -0.66 3.96 -1 6 C-2.32 6 -3.64 6 -5 6 C-5.66 4.02 -6.32 2.04 -7 0 C-3.99 -0.93 -3.13 -1.04 0 0 Z " fill="#2E2F31" transform="translate(504,338)"/>
<path d="M0 0 C2.97 0.5 2.97 0.5 6 1 C2.54 3.77 -1.14 5.85 -5 8 C-3.63 5.05 -2.01 2.56 0 0 Z " fill="#CD9D7E" transform="translate(445,273)"/>
<path d="M0 0 C4.95 0.99 4.95 0.99 10 2 C9.67 2.66 9.34 3.32 9 4 C6.36 4 3.72 4 1 4 C0.67 2.68 0.34 1.36 0 0 Z " fill="#DCD7D3" transform="translate(211,100)"/>
<path d="M0 0 C0.66 0 1.32 0 2 0 C2 3.96 2 7.92 2 12 C-0.38 9.62 -0.37 8.7 -0.69 5.44 C-0.77 4.63 -0.86 3.83 -0.95 3 C-0.97 2.34 -0.98 1.68 -1 1 C-0.67 0.67 -0.34 0.34 0 0 Z " fill="#D6D6D5" transform="translate(246,339)"/>
<path d="M0 0 C3.78 1.81 7.37 3.91 11 6 C9.68 6.99 8.36 7.98 7 9 C5.83 7.69 4.66 6.38 3.5 5.06 C2.85 4.33 2.2 3.6 1.53 2.85 C0 1 0 1 0 0 Z " fill="#DAD3C8" transform="translate(574,149)"/>
<path d="M0 0 C0.33 0 0.66 0 1 0 C1 4.29 1 8.58 1 13 C0.01 13.33 -0.98 13.66 -2 14 C-1.43 9.31 -0.81 4.65 0 0 Z " fill="#E1D6D1" transform="translate(581,269)"/>
<path d="M0 0 C2.13 3.19 2.5 5.27 3 9 C2.01 9.5 2.01 9.5 1 10 C0.34 9.67 -0.32 9.34 -1 9 C-0.67 6.03 -0.34 3.06 0 0 Z " fill="#E0DBDA" transform="translate(157,287)"/>
<path d="M0 0 C1.65 0 3.3 0 5 0 C5 0.99 5 1.98 5 3 C0.38 3 -4.24 3 -9 3 C-9 2.67 -9 2.34 -9 2 C-4.54 1.5 -4.54 1.5 0 1 C0 0.67 0 0.34 0 0 Z " fill="#BBAEAE" transform="translate(607,157)"/>
<path d="M0 0 C1.11 3.33 0.84 5.62 0 9 C0.66 9 1.32 9 2 9 C2 9.66 2 10.32 2 11 C0.68 11 -0.64 11 -2 11 C-1.12 3.38 -1.12 3.38 0 0 Z " fill="#DFD7CA" transform="translate(554,335)"/>
<path d="M0 0 C0.33 0.99 0.66 1.98 1 3 C1.66 3.33 2.32 3.66 3 4 C2.34 4 1.68 4 1 4 C1.33 4.99 1.66 5.98 2 7 C-0.64 6.34 -3.28 5.68 -6 5 C-6 4.67 -6 4.34 -6 4 C-4.35 4 -2.7 4 -1 4 C-0.67 2.68 -0.34 1.36 0 0 Z " fill="#D2A27F" transform="translate(505,326)"/>
<path d="M0 0 C2.94 0.38 2.94 0.38 6 1 C6.33 1.66 6.66 2.32 7 3 C5.35 3.66 3.7 4.32 2 5 C1.34 3.35 0.68 1.7 0 0 Z " fill="#B78F71" transform="translate(260,371)"/>
<path d="M0 0 C0.66 0.33 1.32 0.66 2 1 C1.67 2.65 1.34 4.3 1 6 C0.01 6.33 -0.98 6.66 -2 7 C-2.33 6.01 -2.66 5.02 -3 4 C-1.56 1.81 -1.56 1.81 0 0 Z " fill="#2E2929" transform="translate(493,358)"/>
<path d="M0 0 C4.95 0.99 4.95 0.99 10 2 C10 2.33 10 2.66 10 3 C6.7 3 3.4 3 0 3 C0 2.01 0 1.02 0 0 Z " fill="#DFD6D4" transform="translate(144,255)"/>
<path d="M0 0 C4.46 1.98 4.46 1.98 9 4 C7.02 4.99 7.02 4.99 5 6 C4.34 5.34 3.68 4.68 3 4 C1.68 3.3 0.35 2.63 -1 2 C-0.67 1.34 -0.34 0.68 0 0 Z " fill="#F0E9E6" transform="translate(201,95)"/>
<path d="M0 0 C2.64 0 5.28 0 8 0 C7.67 1.32 7.34 2.64 7 4 C4.98 3.4 2.98 2.73 1 2 C0.67 1.34 0.34 0.68 0 0 Z " fill="#EAE8E2" transform="translate(196,56)"/>
<path d="M0 0 C2.39 2.96 4.74 5.94 7 9 C5.35 8.67 3.7 8.34 2 8 C2 6.68 2 5.36 2 4 C1.34 4 0.68 4 0 4 C0 2.68 0 1.36 0 0 Z " fill="#D5A17A" transform="translate(243,354)"/>
<path d="M0 0 C0.33 0 0.66 0 1 0 C1.33 3.3 1.66 6.6 2 10 C0.68 10.33 -0.64 10.66 -2 11 C-1.86 10.48 -1.71 9.97 -1.56 9.44 C-0.84 6.31 -0.43 3.17 0 0 Z " fill="#664341" transform="translate(567,296)"/>
<path d="M0 0 C3.91 1.16 6.87 2.36 10 5 C6.28 4.49 3.27 3.88 0 2 C0 1.34 0 0.68 0 0 Z " fill="#CE9E78" transform="translate(466,185)"/>
<path d="M0 0 C2.38 0.25 2.38 0.25 5 1 C6.31 3.06 6.31 3.06 7 5 C6.34 5.66 5.68 6.32 5 7 C3.35 4.69 1.7 2.38 0 0 Z " fill="#ECE4E4" transform="translate(576,120)"/>
<path d="M0 0 C3.38 -0.12 3.38 -0.12 7 0 C9 2 9 2 9 4 C5.66 3.44 2.97 2.65 0 1 C0 0.67 0 0.34 0 0 Z " fill="#F6CAA4" transform="translate(189,448)"/>
<path d="M0 0 C0.33 0 0.66 0 1 0 C1 2.64 1 5.28 1 8 C0.34 8 -0.32 8 -1 8 C-1 8.66 -1 9.32 -1 10 C-1.66 10 -2.32 10 -3 10 C-2.01 6.7 -1.02 3.4 0 0 Z " fill="#FAEAD8" transform="translate(595,394)"/>
<path d="M0 0 C0.99 0.33 1.98 0.66 3 1 C3.33 4.3 3.66 7.6 4 11 C3.34 10.67 2.68 10.34 2 10 C1.37 7.71 1.37 7.71 0.88 4.94 C0.71 4.02 0.54 3.1 0.37 2.15 C0.25 1.44 0.12 0.73 0 0 Z " fill="#BE9476" transform="translate(329,351)"/>
<path d="M0 0 C0.66 0 1.32 0 2 0 C2 2.97 2 5.94 2 9 C1.01 8.34 0.02 7.68 -1 7 C-1.25 3.94 -1.25 3.94 -1 1 C-0.67 0.67 -0.34 0.34 0 0 Z " fill="#DBD4D2" transform="translate(115,181)"/>
<path d="M0 0 C-1 3 -1 3 -2.88 4.25 C-5 5 -5 5 -8 4 C-2.25 0 -2.25 0 0 0 Z " fill="#AD7A58" transform="translate(420,279)"/>
<path d="M0 0 C-3.62 3 -3.62 3 -7 3 C-7 2.01 -7 1.02 -7 0 C-4.33 -1.33 -2.83 -0.67 0 0 Z " fill="#E3E8DD" transform="translate(496,113)"/>
</svg>
